<?xml version="1.0" encoding="utf-8"?>
<!-- Generator: Adobe Illustrator 19.2.0, SVG Export Plug-In . SVG Version: 6.00 Build 0)  -->
<svg version="1.1" id="Layer_1" xmlns="http://www.w3.org/2000/svg" xmlns:xlink="http://www.w3.org/1999/xlink" x="0px" y="0px"
	 viewBox="0 0 140.5 155.6" style="enable-background:new 0 0 140.5 155.6;" xml:space="preserve">
<style type="text/css">
	.st0{fill:#292D2D;}
	.st1{fill:#FFFFFF;}
	.st2{fill:#FFFFFF;stroke:#292D2D;stroke-width:2;stroke-miterlimit:10;}
	.st3{fill:none;stroke:#292D2D;stroke-width:2;stroke-miterlimit:10;}
	.st4{fill:none;stroke:#231F20;stroke-width:2;stroke-miterlimit:10;}
	.st5{fill:#030303;stroke:#030303;stroke-width:0.25;stroke-miterlimit:10;}
	.st6{fill:#231F20;stroke:#231F20;stroke-width:0.125;stroke-miterlimit:10;}
	.st7{fill:#292D2D;stroke:#292D2D;stroke-miterlimit:10;}
	.st8{fill:#292D2D;stroke:#292D2D;stroke-width:0.5;stroke-miterlimit:10;}
	.st9{clip-path:url(#SVGID_2_);}
	.st10{clip-path:url(#SVGID_4_);}
	.st11{clip-path:url(#SVGID_6_);}
</style>
<g>
	<g>
		<path class="st0" d="M9.4,63.2c-1.6-2-3.2-4-4.8-6c-1.2-1.4-2.6-2.7-3.9-4c1.2,0.5,2.4,1.1,3.7,1.6s2.6,0.9,3.9,1.4
			c2,0.6,4,1.1,5.9,1.8c0.8,0.3,1.4,0.6,2,1c0.1,0,0.1,0.1,0.2,0.1c1.8,1.2,2.2,3.7,1,5.5s-3.7,2.2-5.5,1c-0.1-0.1-0.2-0.1-0.3-0.2
			C10.7,64.7,10,64,9.4,63.2z"/>
		<polygon class="st1" points="6.6,57.2 6.4,57.5 0,52.9 0.2,52.7 		"/>
		<path class="st1" d="M6.2,57.2c0.1,0.2,0.3,0.6,0.4,0.6c1.1,0.2,1.8,1.1,2.3,1.8c0.6,0.7,1,0.8,1.7,0.4c0-0.7-0.3-1.1-1-1.4
			c-1-0.3-2-0.5-2.6-1.5C6.9,57,6.5,57,6.2,57C6.3,57.1,6.3,57.2,6.2,57.2z"/>
	</g>
	<path class="st0" d="M124.7,131.8c0-0.3-0.1-0.5-0.3-0.6c-0.8-0.5-1.6-1.1-2.4-1.7c-4.5-3-9-6-13.5-9c-2.9-1.9-5.8-3.8-8.6-5.7
		c-3.3-2.2-6.5-4.3-9.8-6.5c-0.8-0.5-1.6-1-2.3-1.5c-2.1-1.4-4.2-2.9-6.3-4.3c-4-2.7-8.1-5.3-12.1-8c-2.5-1.7-4.9-3.3-7.5-4.9l0,0
		l0,0c-0.1-0.1-0.3-0.2-0.4-0.3c-1.8-1.2-3.6-2.4-5.4-3.6s-3.7-2.4-5.5-3.6c-0.3-0.2-0.6-0.4-0.9-0.6c-0.4-0.3-0.7-0.5-1.1-0.8
		c-1.8-1.3-3.6-2.4-5.4-3.6c-0.5-0.4-1.1-0.7-1.6-1.1c-0.8-0.6-1.6-1.1-2.4-1.7c-0.2-0.1-0.3-0.2-0.5-0.3l-0.9-0.6
		c0-0.1-0.1-0.1-0.2-0.1c-0.2-0.1-0.4-0.3-0.6-0.4s-0.3-0.2-0.4-0.2l-1.2-0.8l0,0l-0.1-0.1c-2.2-1.4-4.4-2.6-6.7-3.8l-3.4-2
		c-0.6-0.4-1.3-0.8-1.9-1.3c-0.7-0.6-1.4-1.2-2-1.9c-0.3-0.4-0.9-0.6-1.3-0.4c-0.1,0-0.1,0.1-0.2,0.2l-0.5,0.8
		c-0.7,0.8-1.3,1.8-1.9,2.7l-0.6,1.5v0.1c0.1,0.3,0.1,0.7,0.6,0.8c0.3,0.1,0.6,0.1,0.9,0.2l0,0l0,0l0,0c0.6,0.2,1.1,0.5,1.7,0.7
		c1.1,0.5,2.1,1.3,3.1,1.9c1,0.8,2,1.6,3.1,2.4l0.1,0.1c1.8,1.4,3.7,2.7,5.6,4c0,0,0,0,0.1,0l0,0l1.2,0.8c0.1,0.1,0.3,0.3,0.7,0.5
		l0.1,0.1c0.1,0.1,0.2,0.1,0.3,0.2l1,0.7l0,0l0.1,0.1c0.1,0,0.2,0.1,0.3,0.2c6.2,4,12.5,8,18.7,11.9c7,4.4,13.9,8.9,20.9,13.3
		c6.2,4,12.5,8,18.7,11.9c0.2,0.1,0.3,0.2,0.5,0.3c0.1,0.1,0.2,0.1,0.3,0.1c0.7,0.5,1.5,1,2.2,1.4c3.1,2,6.2,4,9.3,5.9
		c0,0,0,0,0.1,0.1c5,3.2,10.1,6.4,15.1,9.6c0.2,0.1,0.5,0.3,0.8,0.3c0.5,0.2,1,0,1.4-0.2c0.2-0.1,0.5-0.3,0.7-0.5
		c0.2-0.3,0.4-0.6,0.5-0.8c0-0.2,0.1-0.4,0.1-0.5c0-0.2,0-0.3,0-0.4l0,0L124.7,131.8z M19.6,63.7C19.5,63.7,19.5,63.7,19.6,63.7
		C19.5,63.7,19.6,63.7,19.6,63.7L19.6,63.7z M29.6,70.6L29.6,70.6L29.6,70.6L29.6,70.6z M34.9,73L34.9,73L34.9,73L34.9,73z
		 M38.3,73.9L38.3,73.9L38.3,73.9L38.3,73.9z"/>
</g>
<g>
	<g>
		<path class="st0" d="M131.1,63.2c1.6-2,3.2-4,4.8-6c1.2-1.4,2.6-2.7,3.9-4c-1.2,0.5-2.4,1.1-3.7,1.6c-1.3,0.5-2.6,0.9-3.9,1.4
			c-2,0.6-4,1.1-5.9,1.8c-0.8,0.3-1.4,0.6-2,1c-0.1,0-0.1,0.1-0.2,0.1c-1.8,1.2-2.2,3.7-1,5.5s3.7,2.2,5.5,1
			c0.1-0.1,0.2-0.1,0.3-0.2C129.8,64.7,130.5,64,131.1,63.2z"/>
		<polygon class="st1" points="133.9,57.2 134.1,57.5 140.5,52.9 140.3,52.7 		"/>
		<path class="st1" d="M134.3,57.2c-0.1,0.2-0.3,0.6-0.4,0.6c-1.1,0.2-1.8,1.1-2.3,1.8c-0.6,0.7-1,0.8-1.7,0.4c0-0.7,0.3-1.1,1-1.4
			c1-0.3,2-0.5,2.6-1.5c0.1-0.1,0.5-0.1,0.8-0.1C134.2,57.1,134.3,57.2,134.3,57.2z"/>
	</g>
	<path class="st0" d="M15.8,132.5L15.8,132.5c0,0.1,0,0.3,0,0.4c0,0.2,0.2,0.3,0.1,0.5c0.2,0.3,0.4,0.6,0.5,0.8
		c0.2,0.2,0.5,0.3,0.7,0.5c0.4,0.3,0.9,0.4,1.4,0.2c0.3,0,0.5-0.2,0.8-0.3c5-3.2,10.1-6.4,15.1-9.6c0,0,0.1,0,0.1-0.1
		c3.1-1.9,6.2-3.9,9.3-5.9c0.7-0.5,1.5-1,2.2-1.4c0.1,0,0.2-0.1,0.3-0.1c0.2-0.1,0.3-0.2,0.5-0.3c6.2-4,12.5-8,18.7-11.9
		c7-4.4,13.9-8.9,20.9-13.3c6.2-4,12.5-8,18.7-11.9c0.1-0.1,0.2-0.1,0.3-0.2c0.1,0,0.1-0.1,0.1-0.1l0,0l1-0.7c0.1,0,0.2,0,0.3-0.2
		l0.1-0.1c0.3-0.2,0.5-0.4,0.7-0.5l1.2-0.8l0,0c0,0,0,0,0.1,0c1.9-1.3,3.8-2.6,5.6-4l0.1-0.1c1-0.8,2.1-1.5,3.1-2.4
		c1.1-0.6,2-1.4,3.1-1.9c0.6-0.2,1.1-0.5,1.7-0.7l0,0l0,0l0,0c0.3-0.1,0.6-0.1,0.9-0.2c0.4-0.1,0.5-0.4,0.6-0.8c0,0,0.1-0.1,0-0.1
		l-0.6-1.5c-0.6-0.9-1.2-1.9-1.9-2.7l-0.5-0.8c0-0.1-0.1-0.1-0.2-0.2c-0.4-0.2-1,0-1.3,0.4c-0.6,0.7-1.3,1.3-2,1.9
		c-0.6,0.5-1.2,0.9-1.9,1.3l-3.4,2c-2.2,1.2-4.5,2.4-6.7,3.8l-0.1,0.1l0,0l-1.2,0.8c-0.1,0-0.2,0.1-0.4,0.2
		c-0.2,0.1-0.4,0.3-0.6,0.4c-0.1,0-0.2,0.1-0.2,0.1l-0.9,0.6c-0.2,0.1-0.3,0.2-0.5,0.3c-0.8,0.6-1.7,1-2.4,1.7
		c-0.5,0.4-1.1,0.7-1.6,1.1c-1.8,1.2-3.7,2.3-5.4,3.6c-0.4,0.2-0.8,0.5-1.1,0.8c-0.3,0.2-0.6,0.4-0.9,0.6c-1.8,1.2-3.7,2.4-5.5,3.6
		s-3.6,2.4-5.4,3.6c-0.2,0.1-0.3,0.2-0.4,0.3l0,0l0,0c-2.5,1.6-5,3.3-7.5,4.9c-4,2.7-8,5.3-12.1,8c-2.1,1.4-4.2,2.9-6.3,4.3
		c-0.8,0.5-1.6,1-2.3,1.5c-3.3,2.2-6.6,4.3-9.8,6.5c-2.9,1.9-5.7,3.8-8.6,5.7c-4.5,3-9,6-13.5,9c-0.8,0.5-1.6,1.1-2.4,1.7
		c-0.2,0.1-0.2,0.3-0.3,0.6L15.8,132.5z M121,63.7L121,63.7L121,63.7L121,63.7z M110.9,70.6C111,70.6,111,70.6,110.9,70.6
		C111,70.6,111,70.6,110.9,70.6C110.9,70.6,111,70.6,110.9,70.6z M105.6,73L105.6,73L105.6,73L105.6,73z M102.2,73.9L102.2,73.9
		L102.2,73.9L102.2,73.9z"/>
</g>
<path class="st2" d="M36.3,56.9c12.9,8.3,24.5,9.9,34.2,1.9c11.4,9.3,22.8,5.5,34.2-1.9c0,16.7,0.1,33.4,0.1,50.1
	c-2.8,9.7-14.6,20.4-34.5,32c-19.7-11.7-32-22.5-34.2-31.9C36.2,90.4,36.3,73.6,36.3,56.9z"/>
<line class="st3" x1="70.5" y1="58.8" x2="70.5" y2="139"/>
<line class="st3" x1="70.1" y1="90.5" x2="36.2" y2="90.5"/>
<line class="st3" x1="70.5" y1="80.5" x2="105.5" y2="80.5"/>
<line class="st4" x1="104.9" y1="94" x2="70.1" y2="94"/>
<g>
	<g>
		<g>
			<g>
				<path class="st0" d="M97.6,70.5c1.9-0.5,1.5,2.1,0.2,2C97,72.4,96.2,70.9,97.6,70.5z"/>
			</g>
		</g>
		<g>
			<g>
				<path class="st0" d="M94,70.6c0.1,0,0.1-0.1,0.3-0.1c0.4,0.1,1.2,0.6,1.2,1.1c0,1.3-2.5,1.4-2.1-0.4C93.5,71,93.6,70.7,94,70.6z
					"/>
			</g>
		</g>
		<g>
			<g>
				<path class="st0" d="M100.7,70.8c0.5-0.1,1.7,0.4,1.4,1.4c-0.1,0.5-0.9,0.7-1.3,0.7C99.7,72.7,99.6,71.1,100.7,70.8z"/>
			</g>
		</g>
	</g>
	<g>
		<g>
			<g>
				<path class="st0" d="M77.4,70.5c-1.9-0.5-1.5,2.1-0.2,2C77.9,72.4,78.8,70.9,77.4,70.5z"/>
			</g>
		</g>
		<g>
			<g>
				<path class="st0" d="M80.2,70.6c-0.1,0-0.1-0.1-0.3-0.1c-0.4,0.1-1.2,0.6-1.2,1.1c0,1.3,2.5,1.4,2.1-0.4
					C80.8,71,80.7,70.7,80.2,70.6z"/>
			</g>
		</g>
		<g>
			<g>
				<path class="st0" d="M74.3,70.8c-0.5-0.1-1.7,0.4-1.4,1.4c0.1,0.5,0.9,0.7,1.3,0.7C75.3,72.7,75.3,71.1,74.3,70.8z"/>
			</g>
		</g>
	</g>
</g>
<path class="st0" d="M86.4,77c0-0.3-0.2-0.7-0.3-0.9c0,0-0.2-0.6-0.3-0.7c-0.1-0.1-1-1.8-1.1-1.9c-0.1,0-1.3-1.5-1.4-1.6
	c-0.2-0.2-0.3-0.4-0.5-0.5c0,0-0.4-0.6-0.4-0.7c-0.1-0.1-0.1-0.3-0.2-0.4c-0.1-0.2-0.1-0.4-0.2-0.6c0-0.1-0.1-0.3-0.1-0.5
	s0-0.4,0-0.5c0-0.2,0.3-0.8,0.5-0.9c0.1-0.1,0.2-0.2,0.3-0.2c0.1,0,0.2,0,0.3-0.1c0.1-0.1,0.7-0.2,0.9-0.3c0.2-0.1,0.4,0,0.6,0
	c0.3,0,0.5,0.1,0.7,0.2s0.6,0.5,0.7,0.5s0.3,0.2,0.4,0.3c0.3,0.4,0.6,0.8,0.8,1.2c0.3-0.4,0.3-0.7,0.7-1.1c0.2-0.1,0.6-0.5,0.7-0.5
	c0.2-0.1,0.5-0.3,0.8-0.4c0.2,0,0.3-0.1,0.5-0.1s0.4,0,0.6,0c0.4,0.1,0.8,0.2,1.2,0.5c0.1,0.1,0.3,0.2,0.3,0.3
	c0,0.1,0.1,0.1,0.2,0.2s0.1,0.3,0.2,0.5c0,0.2,0.1,0.3,0.1,0.5v0.1c0,0.1,0,0.1,0,0.2c0,0.2,0,0.4,0,0.6c0,0.1,0,0.2-0.1,0.3
	c-0.1,0.1-0.4,0.8-0.4,0.8c-0.2,0.3-0.5,0.6-0.7,0.9c-0.2,0.2-0.3,0.4-0.5,0.5c-0.1,0.1-0.2,0.2-0.3,0.3c-0.2,0.1-0.2,0.3-0.3,0.3
	c-0.1,0.2-0.3,0.3-0.4,0.5c-0.1,0.1-0.3,0.3-0.4,0.3c-0.2,0.2-1.3,1.5-1.2,1.6C88,75.8,88,75.9,87.9,76c-0.1,0.1-0.2,0.2-0.2,0.3
	c-0.1,0.1-0.1,0.4-0.2,0.5s-0.1,0.4-0.1,0.5c0,0-0.2,0.3-0.3,0.3C86.8,77.4,86.4,77.1,86.4,77z"/>
<g>
	<g>
		<path class="st0" d="M53.1,68c-0.9,9.2-2.8,11.7-6.1,4.5c-0.1,7.1-1.9,7.7-5.5,1.8c0.8,2.6,1.6,5.1,2.3,7.7c3-1,6.1-1.5,9.3-1.5
			c3.2,0,6.2,0.5,9.3,1.5c0.7-2.6,1.5-5.1,2.3-7.7c-3.6,5.9-5.4,5.3-5.5-1.8C55.9,79.6,54,77.1,53.1,68z"/>
		<path class="st0" d="M44.2,83.3c1.4,2.9,0,0,1.4,2.9c2.5-1,5-1.4,7.6-1.4c2.5,0,5,0.3,7.6,1.4c0.9-1.7,0,0,1.4-2.9
			c-2.9-1.1-5.9-1.6-9-1.6C50.1,81.7,47.1,82.2,44.2,83.3z"/>
	</g>
	<g>
		<g>
			<path class="st0" d="M41.9,73.5c-0.4-0.1-1.3,0.3-1.1,1.1c0.1,0.4,0.7,0.6,1,0.5C42.6,75,42.7,73.7,41.9,73.5z"/>
		</g>
	</g>
	<g>
		<g>
			<path class="st0" d="M47.3,71.7c-0.4-0.1-1.3,0.3-1.1,1.1c0.1,0.4,0.7,0.6,1,0.5C48.1,73.2,48.2,71.9,47.3,71.7z"/>
		</g>
	</g>
	<g>
		<g>
			<path class="st0" d="M53.4,67.6c-0.4-0.1-1.3,0.3-1.1,1.1c0.1,0.4,0.7,0.6,1,0.5C54.2,69.1,54.2,67.9,53.4,67.6z"/>
		</g>
	</g>
	<g>
		<g>
			<path class="st0" d="M59.5,71.7c-0.4-0.1-1.3,0.3-1.1,1.1c0.1,0.4,0.7,0.6,1,0.5C60.3,73.2,60.4,71.9,59.5,71.7z"/>
		</g>
	</g>
	<g>
		<g>
			<path class="st0" d="M64.9,73.5c-0.4-0.1-1.3,0.3-1.1,1.1c0.1,0.4,0.7,0.6,1,0.5C65.7,75,65.7,73.7,64.9,73.5z"/>
		</g>
	</g>
</g>
<g>
	<path class="st5" d="M87.4,89.8l0.8-0.7c0.5-0.4,0.9-0.8,1.1-1.1c0.2-0.3,0.3-0.7,0.3-1c0-0.2,0-0.3,0-0.4s-0.1-0.2-0.1-0.4
		c-0.1-0.1-0.1-0.2-0.2-0.3c-0.1-0.1-0.2-0.1-0.4-0.1c-0.3,0-0.6,0.1-0.7,0.3l-0.1,1.1h-0.3l-0.1-1.1c0.1-0.2,0.3-0.3,0.6-0.4
		c0.3-0.1,0.6-0.2,0.9-0.2c0.4,0,0.8,0.1,1,0.4c0.2,0.2,0.4,0.6,0.4,1c0,0.1,0,0.3-0.1,0.4c0,0.1-0.1,0.3-0.1,0.4
		c-0.1,0.1-0.1,0.2-0.2,0.4c-0.1,0.1-0.2,0.2-0.3,0.3c-0.1,0.1-0.2,0.2-0.4,0.3c-0.1,0.1-0.3,0.2-0.4,0.3c-0.1,0.1-0.3,0.2-0.4,0.3
		c-0.1,0.1-0.1,0.1-0.2,0.1l-0.2,0.1h1.8l0.4-0.8h0.3l-0.2,1.4h-3L87.4,89.8z"/>
	<path class="st5" d="M91.5,87.9c0-0.3,0-0.6,0.1-0.9s0.1-0.5,0.2-0.7s0.2-0.3,0.4-0.5c0.1-0.1,0.3-0.2,0.5-0.3
		c0.2-0.1,0.3-0.1,0.5-0.1s0.5,0,0.6,0.1c0.2,0.1,0.4,0.2,0.5,0.4s0.3,0.4,0.3,0.8c0.1,0.3,0.1,0.7,0.1,1.1s0,0.7-0.1,1
		s-0.1,0.5-0.2,0.7s-0.2,0.3-0.4,0.4c-0.1,0.1-0.3,0.2-0.4,0.2s-0.3,0.1-0.5,0.1s-0.4,0-0.5-0.1c-0.2,0-0.3-0.1-0.4-0.2
		s-0.3-0.3-0.4-0.4c-0.1-0.2-0.2-0.4-0.2-0.7C91.6,88.6,91.5,88.3,91.5,87.9z M92.4,87.9c0,0.2,0,0.4,0,0.6s0,0.3,0.1,0.5
		c0,0.2,0.1,0.3,0.1,0.4s0.1,0.2,0.1,0.3c0.1,0.1,0.1,0.1,0.2,0.2c0.1,0,0.2,0.1,0.3,0.1c0.3,0,0.5-0.2,0.6-0.5S94,88.7,94,88
		c0-0.3,0-0.5,0-0.7s0-0.4-0.1-0.6c0-0.2-0.1-0.3-0.1-0.4c-0.1-0.1-0.1-0.2-0.2-0.2S93.4,86,93.3,86s-0.2,0-0.3,0.1
		s-0.2,0.1-0.2,0.2c-0.1,0.1-0.1,0.2-0.1,0.4c0,0.2-0.1,0.4-0.1,0.6C92.4,87.4,92.4,87.6,92.4,87.9z"/>
	<path class="st5" d="M95.5,90.2v-0.3l1-0.2v-3.6h-1v-0.3l1.6-0.3h0.1v4.2l1,0.1v0.3L95.5,90.2L95.5,90.2z"/>
	<path class="st5" d="M98.6,88.6l2.5-3.1l0.3,0.1c0,0.5,0,1.2,0,1.9v0.9h1l-0.1,0.5h-1v1.2l-0.7,0.1v-1.3h-1.9L98.6,88.6z
		 M99.3,88.4h1.3v-1.8L99.3,88.4z"/>
</g>
<g>
	<path class="st6" d="M74.3,89.2c0,0.3,0.2,0.6,0.7,0.6c0.8,0,1.4-0.7,1.8-1.3c0.3-0.5,0.8-0.3,0.6,0.1c-0.3,0.6-1.2,1.8-2.8,1.8
		c-1,0-1.6-0.7-1.1-2s1.7-2.2,2.5-2.2c0.6,0,0.8,0.4,0.5,1C76.4,88,75.5,88.9,74.3,89.2z M74.4,88.6c0.6-0.2,1.2-0.8,1.4-1.4
		c0.1-0.2,0.1-0.4-0.1-0.4c-0.5,0-1.1,1.1-1.3,1.5C74.5,88.5,74.5,88.6,74.4,88.6z"/>
	<path class="st6" d="M76.8,88.6c0.3-0.4,0.7-1,1.1-1.5c0-0.2,0-0.3,0-0.5c0.1-0.3,0.9-0.8,1.2-0.8c0.3,0,0.3,0.2,0.2,0.5
		c-0.1,0.3-0.5,0.6-0.5,0.7c0.2,0.8,0.7,1.2,0.3,2.1c0,0.1-0.1,0.3-0.2,0.4c0.5-0.1,0.9-0.4,1.1-0.7c0.2-0.2,0.3-0.3,0.3-0.3
		c0.2,0,0.3,0.3,0.2,0.4c-0.1,0.2-0.5,0.6-0.8,0.8c-0.4,0.3-0.9,0.4-1.6,0.5c-0.3,0.2-0.7,0.4-1.2,0.4c-0.4,0-0.8-0.2-1-0.4
		c-0.3-0.5,0.2-1,0.4-1c0.2,0,0.9,0.6,1.5,0.6c0.2-0.1,0.4-0.4,0.5-0.6c0.3-0.6,0-1.1-0.2-1.4c-0.3,0.4-0.6,0.7-0.9,1.2
		C77,89.2,76.6,89,76.8,88.6z"/>
	<path class="st6" d="M81.4,85.5l0.7-1.7c0.1-0.3,0-0.3,0-0.4s0.2-0.1,0.4-0.1c0.3,0,0.5,0.2,0.4,0.4l-0.7,1.8c0.6,0,1.4,0,2.1,0
		c0.4-0.3-0.1,0.7-0.3,0.7c-0.8,0-1.5,0-2,0l-1.3,3.2c-0.1,0.3,0,0.5,0.2,0.5c0.4,0,0.9-0.6,1.1-1.1c0.1-0.2,0.3-0.3,0.4-0.3
		c0.2,0,0.3,0.2,0.2,0.4c0,0,0,0,0,0.1c-0.4,0.7-1.2,1.6-2.1,1.6c-0.6,0-0.8-0.3-0.5-1.1l1.3-3.2c-0.5,0-0.7,0-0.7,0
		c-0.3,0-0.3-0.7,0-0.7C80.5,85.5,80.8,85.5,81.4,85.5z"/>
	<path class="st6" d="M83.1,89.9c-0.1,0.3-0.4,0.5-0.7,0.5c-0.3,0-0.4-0.2-0.3-0.5s0.4-0.5,0.7-0.5C83.1,89.5,83.3,89.7,83.1,89.9z"
		/>
</g>
<g>
	<path class="st7" d="M29.1,31l2.5,0.9l-0.3,0.9l-2.5-1c-0.7,1.2-1.7,2.2-3,2.7c-3.5,1.6-7.2-0.1-8.6-3.2c-1.6-3.5,0.1-7.2,3.2-8.6
		c3.5-1.6,7.2,0.1,8.6,3.2C29.6,27.5,29.8,29.3,29.1,31z M28.1,26.4c-1.3-2.8-4.5-4.1-7.4-2.8c-2.6,1.2-4.1,4.3-2.7,7.4
		c1.2,2.6,4.3,4.1,7.4,2.8C27.9,32.6,29.5,29.4,28.1,26.4z"/>
	<path class="st7" d="M39,24.7c-2.5,1.5-5.2,0.5-6.4-1.5l-4.2-6.9l0.8-0.5l4.1,6.8c1,1.6,3.2,2.4,5.2,1.2c1.6-1,2.4-3.2,1.2-5.2
		l-4.1-6.8l0.8-0.5l4.1,6.8C42,20.8,41,23.5,39,24.7z"/>
	<path class="st7" d="M49,13.1l-3.5,1.3l1.8,4.9l5-1.8l0.3,0.9l-5.9,2.2L42.4,9l5.3-1.9L48,8l-4.4,1.6l1.5,4.2l3.5-1.3L49,13.1z"/>
	<path class="st7" d="M59.9,10.4l-3.7,0.7l1,5.1l5.2-1l0.2,0.9l-6.1,1.2L54.2,5.1l5.5-1L59.9,5l-4.6,0.9l0.8,4.4l3.7-0.7L59.9,10.4z
		"/>
	<path class="st7" d="M75.5,13.6l0.2-10.3h0.9l-0.2,12.8L67.6,5.3l-0.2,10.3h-0.9l0.2-12.8L75.5,13.6z"/>
	<path class="st7" d="M93,19c1.4,0.5,2.9,0.4,4.2-0.2l0.4,0.8c-1.5,0.7-3.3,0.8-4.9,0.2c-3.6-1.3-5.1-5.2-3.9-8.3
		c1.3-3.6,5.2-5.1,8.3-3.9c1.8,0.7,3.1,1.9,3.7,3.4l-0.8,0.4c-0.6-1.3-1.7-2.4-3.2-2.9c-2.8-1-6,0.3-7.1,3.4
		C88.6,14.7,89.9,17.9,93,19z"/>
	<path class="st7" d="M100.2,23l6-10.8l0.8,0.4l-6,10.8L100.2,23z"/>
	<path class="st7" d="M106.9,27.3l6.8-9.2l-3.4-2.5l0.5-0.7l7.5,5.5l-0.5,0.7l-3.4-2.5l-6.8,9.2L106.9,27.3z"/>
	<path class="st7" d="M114.5,33.7l2.7-2.6l3.2-8.7l0.9,0.3l-2.9,7.9l7.9-2.8l0.3,0.9l-8.7,3.1l-2.7,2.6L114.5,33.7z"/>
</g>
<g>
	<path class="st7" d="M36.1,47.7V39h2.7c1.8,0,2.8,1.4,2.8,2.8c0,1.7-1.3,2.9-2.7,2.9h-2.1v3.1L36.1,47.7L36.1,47.7z M38.8,43.9
		c1,0,2.1-0.8,2.1-2.2c0-1-0.8-2.1-2.1-2.1h-2v4.3L38.8,43.9L38.8,43.9z"/>
	<path class="st7" d="M46.6,38.7l4.1,8.9l-0.6,0.3l-1.5-3.2h-4.1L43,47.9l-0.6-0.3L46.6,38.7z M46.6,40.2l-1.7,3.7h3.5L46.6,40.2z"
		/>
	<path class="st7" d="M53,47.7V39h2.7c1.8,0,2.8,1.4,2.8,2.8c0,1.7-1.3,2.9-2.7,2.9h-2.1v3.1L53,47.7L53,47.7z M55.7,43.9
		c1,0,2.1-0.8,2.1-2.2c0-1-0.8-2.1-2.1-2.1h-2v4.3L55.7,43.9L55.7,43.9z"/>
	<path class="st7" d="M64.5,43.4h-2.6V47h3.8v0.6h-4.4v-8.7h4v0.6H62v3.1h2.6v0.8H64.5z"/>
	<path class="st7" d="M71.6,44.5c-0.3,0-0.7-0.1-0.8-0.1l3,3.1L73.3,48l-4-4h1.8c1,0,2.1-0.8,2.1-2.2c0-1-0.8-2.1-2.1-2.1h-2v8.1
		h-0.6v-8.7h2.7c1.8,0,2.8,1.4,2.8,2.8C74,43.2,72.9,44.5,71.6,44.5z"/>
	<path class="st7" d="M86.9,47.2c1,0,2-0.4,2.8-1.1l0.5,0.5c-0.9,0.8-2,1.3-3.2,1.3c-2.7,0-4.6-2.2-4.6-4.6c0-2.7,2.2-4.6,4.6-4.6
		c1.3,0,2.5,0.5,3.3,1.4l-0.5,0.5c-0.7-0.7-1.7-1.2-2.9-1.2c-2.1,0-3.9,1.7-3.9,4C82.9,45.4,84.6,47.2,86.9,47.2z"/>
	<path class="st7" d="M97.1,38.7c2.7,0,4.6,2.2,4.6,4.6c0,2.7-2.2,4.6-4.6,4.6c-2.7,0-4.6-2.2-4.6-4.6
		C92.5,40.6,94.7,38.7,97.1,38.7z M97.1,39.3c-2,0-3.9,1.6-3.9,4c0,2,1.6,3.9,4,3.9c2,0,3.9-1.6,3.9-3.9
		C101.1,41.1,99.4,39.3,97.1,39.3z"/>
	<path class="st7" d="M103.7,46.6c0.3,0,0.6,0.3,0.6,0.6c0,0.3-0.3,0.6-0.6,0.6c-0.3,0-0.6-0.3-0.6-0.6
		C103.1,46.8,103.4,46.6,103.7,46.6z"/>
</g>
<g>
	<path class="st8" d="M31.1,153.6c-0.5,0-1.3-0.2-1.4-1.4H30c0.1,0.9,0.7,1.1,1,1.1c0.7,0,1.1-0.6,1.1-1s-0.2-0.6-1.2-0.9
		c-0.6-0.1-1.1-0.5-1.1-1.1c0-0.9,0.7-1.2,1.2-1.2c0.7,0,1.2,0.5,1.2,1.2h-0.3c0-0.5-0.4-0.9-0.9-0.9c-0.4,0-0.9,0.3-0.9,0.9
		c0,0.5,0.4,0.7,0.8,0.8c1.2,0.3,1.4,0.7,1.4,1.2C32.6,152.9,32,153.6,31.1,153.6z"/>
	<path class="st8" d="M34.2,153.5v-4.4h1.3c0.9,0,1.4,0.7,1.4,1.4c0,0.9-0.7,1.4-1.4,1.4h-1v1.5h-0.3V153.5z M35.5,151.6
		c0.5,0,1.1-0.4,1.1-1.1c0-0.5-0.4-1.1-1.1-1.1h-1v2.2H35.5z"/>
	<path class="st8" d="M40,151.9c-0.1,0-0.3,0-0.4,0l1.5,1.5l-0.2,0.2l-2-2h0.9c0.5,0,1.1-0.4,1.1-1.1c0-0.5-0.4-1.1-1.1-1.1h-1v4
		h-0.3V149h1.3c0.9,0,1.4,0.7,1.4,1.4C41.1,151.3,40.6,151.9,40,151.9z"/>
	<path class="st8" d="M42.8,153.5v-4.4h0.3v4.4H42.8z"/>
	<path class="st8" d="M48.2,152.8v-3.6h0.3v4.5l-3.2-3.8v3.6H45V149L48.2,152.8z"/>
	<path class="st8" d="M52.3,153.3c0.5,0,0.9-0.2,1.3-0.5V152h-1.3v-0.3h1.6v1.3c-0.4,0.4-1,0.7-1.6,0.7c-1.4,0-2.3-1.1-2.3-2.3
		c0-1.4,1.1-2.3,2.3-2.3c0.7,0,1.2,0.3,1.7,0.7l-0.2,0.2c-0.3-0.4-0.8-0.6-1.4-0.6c-1,0-2,0.8-2,2C50.3,152.4,51.2,153.3,52.3,153.3
		z"/>
	<path class="st8" d="M57.9,149.1v0.3H56v1.6h1.3v0.3H56v2.1h-0.3V149h2.2V149.1z"/>
	<path class="st8" d="M59.4,153.5v-4.4h0.3v4.4H59.4z"/>
	<path class="st8" d="M63.3,151.4H62v1.8h1.9v0.3h-2.2v-4.4h2v0.3H62v1.6h1.3L63.3,151.4L63.3,151.4z"/>
	<path class="st8" d="M65.6,149.1h0.3v4h2.3v0.3h-2.6L65.6,149.1L65.6,149.1z"/>
	<path class="st8" d="M72.9,151.3c0,1.2-1,2.2-2.2,2.2h-1.1v-4.4h1.1C71.9,149.1,72.9,150.1,72.9,151.3z M69.9,149.5v3.7h0.8
		c1,0,1.9-0.8,1.9-1.9c0-1-0.8-1.9-1.9-1.9L69.9,149.5L69.9,149.5z"/>
	<path class="st8" d="M74.8,152.8l-0.5,1.2l-0.3-0.1l0.4-1.3L74.8,152.8z"/>
	<path class="st8" d="M83.4,149v4.5h-0.3v-3.6l-1.8,2.2l-1.8-2.2v3.6h-0.3V149l2.1,2.5L83.4,149z"/>
	<path class="st8" d="M85.3,153.5v-4.4h0.3v4.4H85.3z"/>
	<path class="st8" d="M88.5,153.6c-0.5,0-1.3-0.2-1.4-1.4h0.3c0.1,0.9,0.7,1.1,1,1.1c0.7,0,1.1-0.6,1.1-1s-0.2-0.6-1.2-0.9
		c-0.6-0.1-1.1-0.5-1.1-1.1c0-0.9,0.7-1.2,1.2-1.2c0.7,0,1.2,0.5,1.2,1.2h-0.3c0-0.5-0.4-0.9-0.9-0.9c-0.4,0-0.9,0.3-0.9,0.9
		c0,0.5,0.4,0.7,0.8,0.8c1.2,0.3,1.4,0.7,1.4,1.2C89.9,152.9,89.4,153.6,88.5,153.6z"/>
	<path class="st8" d="M92.5,153.6c-0.5,0-1.3-0.2-1.4-1.4h0.3c0.1,0.9,0.7,1.1,1,1.1c0.7,0,1.1-0.6,1.1-1s-0.2-0.6-1.2-0.9
		c-0.6-0.1-1.1-0.5-1.1-1.1c0-0.9,0.7-1.2,1.2-1.2c0.7,0,1.2,0.5,1.2,1.2h-0.3c0-0.5-0.4-0.9-0.9-0.9c-0.4,0-0.9,0.3-0.9,0.9
		c0,0.5,0.4,0.7,0.8,0.8c1.2,0.3,1.4,0.7,1.4,1.2C93.9,152.9,93.4,153.6,92.5,153.6z"/>
	<path class="st8" d="M97.4,149c1.4,0,2.3,1.1,2.3,2.3c0,1.4-1.1,2.3-2.3,2.3c-1.4,0-2.3-1.1-2.3-2.3C95.1,150,96.2,149,97.4,149z
		 M97.4,149.4c-1,0-2,0.8-2,2c0,1,0.8,2,2,2c1,0,2-0.8,2-2C99.4,150.2,98.5,149.4,97.4,149.4z"/>
	<path class="st8" d="M102.9,153.6c-1,0-1.7-0.8-1.7-1.6v-2.8h0.3v2.8c0,0.7,0.5,1.3,1.3,1.3c0.6,0,1.3-0.5,1.3-1.3v-2.8h0.3v2.8
		C104.5,153,103.7,153.6,102.9,153.6z"/>
	<path class="st8" d="M107.9,151.9c-0.2,0-0.3,0-0.4,0l1.5,1.5l-0.2,0.2l-2-2h0.9c0.5,0,1.1-0.4,1.1-1.1c0-0.5-0.4-1.1-1.1-1.1h-1v4
		h-0.3V149h1.3c0.9,0,1.4,0.7,1.4,1.4C109.1,151.3,108.6,151.9,107.9,151.9z"/>
	<path class="st8" d="M110.8,153.5v-4.4h0.3v4.4H110.8z"/>
</g>
<path class="st0" d="M65.2,132.5c-0.2,0-0.4-0.1-0.5-0.2c-0.3-0.3-0.2-0.7,0-1l0,0c0,0,0.5-0.5,0.8-2.3c0.1-0.7,0-1.7,0.2-2.8
	c0.1-0.7,0-1.4-0.1-2.1c-0.1-0.6-0.1-1.2-0.2-1.8c-0.2-1.3-0.7-2.7-0.9-4.1c-0.2-1.4-0.8-2.8-1.2-4.2c-0.2-0.8-0.5-1.6-0.7-2.3
	c-0.2-0.7-0.5-1.4-0.7-2.1s-0.4-1.3-0.6-2c-0.5,0.6-1,1-1.4,1.6c-0.3,0.4-0.6,0.9-0.9,1.3c-0.4,0.5-0.8,1.1-1.2,1.6
	c1.2,3,2.1,6,2.3,8.7c0,0.3,0,0.7,0,1c0,1-0.2,1.5-0.7,2.2c-0.3,0.4-0.8,1-1.2,1.2c-1.1,0.6-2.4,0.7-3.5,0c-0.4-0.2-0.7-0.5-0.9-0.8
	c-0.6-0.7-0.8-1.6-0.8-2.7c0-0.9,0.1-1.7,0.2-2.6c0.2-1.1,0.5-2.1,0.9-3.1c0.2-0.6,0.4-1.3,0.7-1.9c0.4-0.8,1-1.5,1.4-2.3
	c-0.3-0.7-0.5-1.3-0.8-2c-0.2-0.5-0.5-1-0.7-1.5c-0.2-0.4-0.3-0.8-0.5-1.2c-0.2-0.3-0.4-0.7-0.5-1c-0.2-0.4-0.4-0.8-0.6-1.2
	c-0.2-0.5-0.5-1-0.7-1.4c-0.1,0.1-0.3,0.3-0.4,0.4c-0.3,0.3-0.6,0.5-1,0.8c-0.3,0.3-0.6,0.7-0.9,1c-0.4,0.4-0.8,0.8-1.2,1.2
	c0.3,1.1,0.5,2.3,0.8,3.3c0.1,0.6,0.3,1.2,0.4,1.7c0.1,0.7,0.1,1.3,0.1,1.9c0,2.2-1.2,3-2.3,3c-0.4,0-1,0-1.4-0.3
	c-0.5-0.3-0.9-0.7-1.3-1.2c-0.3-0.4-0.5-0.8-0.7-1.3s-0.3-1-0.3-1.5c0-0.7,0.1-1.4,0.4-2.1c0.2-0.6,0.6-1.3,1-1.9
	c0.3-0.5,0.7-1,1.1-1.4c0.2-0.2,0.4-0.4,0.6-0.6c-0.2-0.5-0.3-1-0.5-1.5s-0.3-1-0.4-1.5c-0.2-0.6-0.5-1.1-0.7-1.7
	c0-0.1-0.1-0.3-0.1-0.4c-0.2-0.7-0.5-1.3-0.7-1.9c-0.1,0.1-0.3,0.2-0.4,0.3c-0.2,0.1-0.4,0.2-0.6,0.4c-0.3,0.3-0.6,0.6-0.9,0.9
	c0.2,0.6,0.4,1.2,0.4,1.7s-0.2,0.9-0.5,1.3c-0.2,0.2-0.3,0.5-0.6,0.6c-0.7,0.4-1.8,0.3-2.4,0c-0.4-0.2-0.6-0.5-0.5-0.9
	c0-0.9,0.7-1.8,2-2.9c-0.2-0.5-0.4-1-0.6-1.5c-0.2-0.4-0.5-0.7-0.6-1c-0.6-0.9-0.7-1.6-0.7-2.2c0-1.7,2.3-2.5,2.6-2.5
	c0.4-0.1,0.8,0.1,0.9,0.5s-0.5,0.7-0.9,0.9c-0.7,0.2-1.2,0.8-1.2,1.3c0,0.4,0.5,1.5,0.9,2.4c0.2,0.4,0.6,0.9,0.8,1.3
	c0.4-0.3,0.8-0.7,1.2-1.1c0.3-0.2,0.5-0.5,0.8-0.7c-0.3-0.9-0.4-1.6-0.4-2.1s0.1-0.9,0.3-1.3c0.2-0.4,0.4-0.7,0.8-0.9
	c0.3-0.2,0.9-0.4,1.2-0.4c0.4,0,0.9,0.1,1.2,0.3c0.6,0.3,0.8,0.9,0.8,1.6c0,0.3-0.1,0.7-0.3,1.1c-0.2,0.3-0.5,0.7-0.8,1
	c-0.3,0.4-0.8,0.8-1.3,1.2c0.1,0.3,0.2,0.9,0.3,1.2c0.2,0.6,0.4,1,0.7,1.7c0,0.1,0.1,0.2,0.1,0.3c0.2,0.7,0.5,1.4,0.7,2.1
	c0.2,0.5,0.4,1.1,0.5,1.6c0.3-0.3,0.5-0.4,0.8-0.7c0.2-0.2,0.5-0.6,0.7-0.8c0.2-0.2,0.4-0.4,0.6-0.5c0.4-0.4,0.8-0.8,1.2-1.2
	c-0.2-0.5-0.4-1.1-0.6-1.5c-0.4-0.9-0.7-1.5-0.9-2.3c-0.2-0.8-0.4-1.5-0.4-2c0-1.4,0.7-2.4,1.5-3c0.6-0.4,1.1-0.6,1.9-0.6l0.6-0.1
	c0.9,0.2,1.6,0.3,2.2,1.1c0.5,0.6,0.9,1.3,0.9,2.2c0,1.4-0.5,2.3-1.2,3.7c-0.3,0.5-0.7,1.1-1.1,1.5c-0.4,0.5-0.8,0.9-1.2,1.4
	c0.1,0.2,0.2,0.5,0.3,0.7c0.2,0.4,0.4,1,0.6,1.4c0.3,0.6,0.5,0.9,0.8,1.5c0.2,0.4,0.4,0.8,0.5,1.2c0.2,0.4,0.4,0.9,0.6,1.3
	s0.3,0.7,0.5,1.1c0.1,0.3,0.2,0.5,0.3,0.8c0.4-0.5,1-1.4,1.3-1.9c0.7-0.9,1.1-1.2,1.8-2c0.2-0.2,0.3-0.4,0.5-0.6
	c-0.2-0.6-0.4-1.2-0.5-1.8c-0.1-0.4-0.4-1.2-0.5-1.6c-0.2-0.7-0.2-1.1-0.4-1.8c-0.2-0.9-0.4-1.8-0.5-2.5c0-0.4,0-0.8,0-1.2
	c0-0.9,0.3-1.7,0.7-2.4c0.1-0.2,0.3-0.4,0.5-0.6c0.1-0.1,0.2-0.2,0.3-0.3c0.4-0.3,0.8-0.6,1.2-0.8c0.7-0.3,1.4-0.5,2.1-0.5
	c0,0,0,0,0.1,0c1,0,2,0.3,2.7,1c0.5,0.4,0.9,1,1.1,1.7c0.1,0.4,0.2,0.9,0.2,1.5c0,0.4,0,0.7-0.1,1.1c-0.1,0.5-0.2,0.9-0.4,1.4
	c-0.3,0.8-0.8,1.7-1.3,2.5c-0.1,0.2-0.2,0.3-0.3,0.5c-0.4,0.6-0.8,1.1-1.3,1.7c-0.2,0.3-0.5,0.6-0.7,0.9c-0.4,0.5-0.8,1-1.3,1.5
	c0.1,0.3,0.1,0.7,0.3,1.1c0.2,0.6,0.4,1.3,0.6,1.9c0.2,0.7,0.5,1.2,0.7,1.9c0.3,1,0.6,2,0.9,2.9s0.5,1.8,0.8,2.6
	c0.5,1.2,0.6,2.4,0.9,3.5c0.3,1.3,0.5,2.5,0.6,3.7c0.1,0.8,0.1,1.6,0.1,2.3c0,1.5-0.2,2.6-0.3,3.5c-0.4,1.9-1,2.5-1.1,2.7
	C65.5,132.5,65.3,132.5,65.2,132.5z M56.7,113.5c-0.4,0.6-0.7,1.3-1,1.9c-0.3,0.7-0.6,1.4-0.9,2.2c-0.4,1.3-0.7,2.7-0.7,4.1
	c0,0.4,0,0.7,0.1,1c0.2,0.6,0.5,1.1,1,1.4c0.7,0.4,1.5,0.3,2.2-0.1c0.2-0.1,0.4-0.3,0.6-0.5c0.4-0.3,0.5-1,0.5-1.7
	c0-0.5,0-1.1-0.1-1.7s-0.2-1.2-0.3-1.9c-0.2-0.9-0.4-1.8-0.7-2.7C57.2,114.8,56.9,114.1,56.7,113.5z M47.7,108
	c-0.4,0.5-0.7,0.9-1,1.4s-0.7,0.8-0.9,1.2c-0.2,0.6-0.3,1.2-0.3,1.8c0,0.5,0.1,1,0.4,1.4c0.2,0.4,0.5,0.7,0.8,0.9
	c0.4,0.3,0.9,0.6,1.1,0.5l0,0c0.7,0,1-0.8,0.9-1.6C48.4,112.2,48.3,110.2,47.7,108z M63.3,93.8c-0.6,0-1,0.2-1.5,0.4
	c-0.4,0.2-0.8,0.5-1.1,0.9c-0.4,0.5-0.7,1.2-0.7,2c0,0.3,0,0.6,0,0.9c0,0.5,0.1,1.1,0.3,1.8c0.1,0.5,0.2,1.1,0.4,1.7
	c0.1,0.3,0.1,0.5,0.2,0.8c0.1,0.4,0.2,0.9,0.4,1.4c0.1,0.3,0.2,0.6,0.3,1c0.4-0.5,0.7-1,1.1-1.4c0.4-0.5,0.8-0.8,1.1-1.3
	c0.2-0.2,0.3-0.4,0.4-0.6c0.2-0.3,0.4-0.7,0.6-1c0.4-0.7,0.7-1.3,1-2c0.2-0.6,0.3-1.1,0.3-1.7s0-1.1-0.2-1.5s-0.6-0.7-1-0.9
	c-0.4-0.2-0.8-0.4-1.3-0.4C63.7,93.9,63.3,93.8,63.3,93.8z M40.8,103.4c0.2,0,0.6,0.1,0.9-0.1c0.2-0.1,0.2-0.4,0.2-0.6
	s0-0.4-0.1-0.6C41.3,102.7,40.9,103.1,40.8,103.4z M53.3,94.2c-1.1,0-2.1,0.8-2.1,2.3c0,0.6,0.4,1.4,0.8,2.4
	c0.3,0.7,0.5,1.4,0.8,2.2c0.7-0.8,1.4-1.6,1.9-2.4c0.5-0.9,0.7-1.5,0.8-2.8c0.1-1.2-1-1.8-2-1.8C53.5,94.1,53.3,94.2,53.3,94.2z
	 M46.6,94.7c-0.2,0-0.5,0-0.6,0.1c-0.2,0.1-0.5,0.4-0.5,1.1c0,0.2,0.1,0.6,0.2,1c0.8-0.7,1.4-1.3,1.4-1.6c0-0.3-0.1-0.5-0.2-0.6
	C46.8,94.7,46.7,94.7,46.6,94.7z"/>
<g>
	<g>
		<defs>
			<path id="SVGID_1_" d="M70.8,94v44.9c19.8-11.6,31.6-22.3,34.4-32c0-4.3,0-8.6,0-13H70.8V94z"/>
		</defs>
		<clipPath id="SVGID_2_">
			<use xlink:href="#SVGID_1_"  style="overflow:visible;"/>
		</clipPath>
		<g class="st9">
			<path class="st0" d="M28.6,101.1c0.1-0.5,0.5-0.8,0.8-1.1c0.6-0.6,1.2-1.3,1.8-1.9c0.1-0.1,0.1-0.2,0.2-0.3
				c0.3-0.2,0.6-0.2,0.8,0s0.2,0.6,0,0.8c-0.3,0.3-0.6,0.6-1,1c-0.2,0.2-0.3,0.4-0.5,0.6c1.3,0.3,2-0.5,2.7-1.3
				c0.4-0.5,0.8-1,1.2-1.5c0.2-0.3,0.5-0.3,0.8-0.2c0.3,0.1,0.4,0.3,0.3,0.6c0,0.1,0,0.2,0.1,0.4c-0.6,0.6-1.2,1.2-2,1.9
				c0.4,0,0.8,0,1.1,0.1c0.9,0.1,1.6-0.2,2.2-1c0.3-0.5,0.8-1,1.2-1.5c0.3-0.5,0.7-0.7,1.3-0.6c0.2,0.6,0.1,1-0.4,1.4
				c-0.4,0.4-0.9,0.8-1.3,1.2c-0.1,0.1-0.2,0.4-0.4,0.6c0.6,0,1.1,0,1.6,0c0.2,0,0.4-0.1,0.5-0.2c0.8-0.8,1.5-1.7,2.3-2.5
				c0.4-0.4,0.5-0.5,1.2-0.3c0.2,0.4,0.1,0.8-0.3,1.1c-0.6,0.5-1,1-1.6,1.6c-0.1,0.1-0.2,0.3-0.3,0.5c0.1,0,0.2,0,0.3,0.1
				c1.1,0.3,1.4,0.2,2.1-0.7c0.7-0.8,1.4-1.6,2.1-2.3c0.4-0.4,0.8-0.4,1-0.1s0.2,0.7-0.3,1c-0.8,0.6-1.4,1.4-2,2.1
				c0.8,0.2,1.5,0.1,2.3,0.1c0.1,0,0.3-0.1,0.3-0.2c0.7-0.9,1.4-1.8,2.2-2.7c0.1-0.2,0.3-0.3,0.5-0.4c0.3-0.1,0.6,0,0.7,0.2
				s0.1,0.5-0.1,0.7c-0.4,0.4-0.8,0.8-1.2,1.3c-0.3,0.3-0.5,0.7-0.8,1.1c0.7,0,1.2,0.1,1.7,0c0.4-0.1,0.7-0.4,1-0.7
				c0.6-0.5,1.1-1.1,1.6-1.6c0.2-0.2,0.4-0.5,0.5-0.7c0.4-0.5,0.5-0.5,1.1-0.2c0.1,0.5,0,0.9-0.4,1.2c-0.6,0.6-1.1,1.2-1.7,1.8
				c0.1,0.1,0.2,0.1,0.2,0.1c0.7,0,1.4,0,2-0.1c0.2,0,0.4-0.2,0.5-0.4c0.4-0.3,0.7-0.7,1-1.1c0.4-0.4,0.7-0.9,1-1.3
				c0.1-0.1,0.1-0.2,0.2-0.3c0.2-0.1,0.5-0.1,0.7-0.1c0.1,0.1,0.2,0.4,0.2,0.6s-0.2,0.5-0.4,0.7c-0.3,0.3-0.5,0.6-0.8,0.9
				c-0.2,0.3-0.5,0.6-0.8,1c0.3,0.1,0.5,0.1,0.7,0.1c0.6,0,1.1,0,1.7-0.1c0.2,0,0.5-0.1,0.6-0.3c0.8-0.8,1.6-1.6,2.3-2.4
				c0.2-0.2,0.3-0.5,0.6-0.7c0.2-0.2,0.4-0.3,0.6-0.4c0.3-0.1,0.5,0.1,0.5,0.5c0.1,0.4-0.1,0.6-0.3,0.9c-0.6,0.6-1.2,1.3-1.8,1.9
				c-0.1,0.1-0.2,0.3-0.4,0.5c0.7,0,1.3,0,1.9,0c0.1,0,0.2-0.1,0.3-0.2c0.7-0.7,1.3-1.5,2-2.2c0.1-0.1,0.2-0.3,0.3-0.5
				c0.1-0.1,0.1-0.3,0.2-0.4c0.3-0.4,0.9-0.5,1.1-0.3c0.3,0.2,0.3,0.8,0,1.1c-0.6,0.7-1.2,1.3-1.7,2c-0.1,0.1-0.2,0.3-0.4,0.5
				c0.3,0,0.5,0,0.7,0c0.1,0,0.3-0.1,0.4,0c1.4,0.3,2.2-0.6,3-1.4c0.5-0.5,0.9-1.1,1.4-1.6c0.3-0.4,0.6-0.2,1-0.1
				c0.2,0.5,0.1,0.9-0.2,1.2c-0.3,0.3-0.6,0.6-0.9,0.9s-0.6,0.5-0.8,1c0.8,0,1.6,0,2.4,0c0.1,0,0.2-0.1,0.3-0.2
				c0.6-0.6,1.1-1.3,1.6-2c0.2-0.3,0.3-0.6,0.5-0.8c0.2-0.3,0.4-0.6,0.8-0.7s0.7,0,0.7,0.5c0,0.2-0.1,0.5-0.2,0.7
				c-0.5,0.7-1.1,1.3-1.6,2c-0.1,0.1-0.2,0.3-0.4,0.6c0.8,0,1.4-0.1,2-0.1c0.1,0,0.3-0.1,0.3-0.2c0.7-0.7,1.3-1.5,1.9-2.2
				c0.2-0.2,0.4-0.4,0.6-0.6s0.5-0.3,0.7-0.1c0.3,0.3,0.3,0.6,0,0.9s-0.7,0.6-1,0.9c-0.4,0.4-0.7,0.8-1.1,1.3
				c0.8,0.1,1.4,0.1,2.1,0.1c0.1,0,0.3-0.1,0.4-0.2c0.5-0.5,1-1,1.5-1.5s0.9-1.1,1.3-1.6c0.1-0.1,0.2-0.1,0.2-0.2
				c0.4-0.3,0.7-0.3,0.9-0.1c0.2,0.2,0.2,0.6-0.1,1c-0.7,0.8-1.4,1.5-2,2.3c-0.1,0.1-0.1,0.1-0.3,0.3c0.4,0,0.7,0,1,0s0.7-0.1,1,0
				c0.7,0.1,1.1-0.3,1.5-0.8c0.5-0.7,1.1-1.4,1.6-2.1c0.2-0.3,0.5-0.3,0.8-0.2c0.3,0.1,0.4,0.3,0.4,0.5c0,0.1,0,0.2,0,0.3
				c-0.7,0.8-1.3,1.5-1.9,2.2c0.6,0.2,1.2,0.2,1.8,0.2c0.3,0,0.7,0,1,0c0.2,0,0.3-0.1,0.5-0.3c0.5-0.5,1.1-1.1,1.6-1.6s1-1,1.5-1.6
				c0.2,0.1,0.5,0.2,0.6,0.4c0.2,0.3,0,0.6-0.2,0.8c-0.6,0.6-1.2,1.2-1.8,1.8c-0.1,0.1-0.1,0.2-0.2,0.4c0.7,0.3,1.5,0.3,2.2,0.1
				c0.1,0,0.3-0.1,0.4-0.2c0.5-0.6,1.1-1.3,1.6-1.9c0.1-0.1,0.2-0.3,0.3-0.4c0.4-0.7,0.5-0.8,1.3-0.5c0.2,0.4,0.1,0.8-0.2,1.1
				c-0.5,0.6-1,1.2-1.5,1.8c0.6,0.3,1.3,0.3,1.9,0.4c0.1,0,0.3-0.2,0.4-0.3c0.8-0.8,1.6-1.7,2.3-2.6c0.3-0.4,0.6-0.5,1-0.3
				c0.1,0.5,0.1,0.9-0.3,1.3c-0.6,0.5-1.1,1.1-1.7,1.7c0.2,0,0.4,0.1,0.5,0.1c0.3,0,0.6,0,0.9,0c0.2,0,0.4-0.1,0.6-0.2
				c0.7-0.7,1.3-1.3,2-2c0.1-0.1,0.2-0.2,0.2-0.4c0-0.6,0.5-0.8,0.9-1c0.1,0.1,0.3,0.1,0.4,0.2c0.4,0.3,0.4,0.6,0.1,0.9
				c-0.6,0.7-1.3,1.4-1.9,2.2c-0.1,0.1-0.1,0.2-0.1,0.3c0.8,0,1.5,0.1,2.2,0.1c0.2,0,0.5-0.2,0.7-0.4c0.7-0.8,1.4-1.6,2.1-2.4
				c0.1-0.1,0.2-0.3,0.3-0.3c0.3-0.2,0.5-0.1,0.7,0.1s0.2,0.4,0.1,0.6c-0.2,0.2-0.4,0.4-0.5,0.7c-0.4,0.5-0.9,1-1.3,1.6
				c0,0,0,0.1-0.1,0.3c0.7,0,1.3,0,1.9,0c0,0,0,0.1,0.1,0.1c0.2-0.2,0.4-0.5,0.6-0.8c0.6-0.9,1.2-1.7,1.9-2.6
				c0.1-0.1,0.2-0.2,0.3-0.2c0.6-0.6,0.8-0.6,1.3,0.2c-0.7,1.1-1.7,2-2.3,3.2c0.5,0.4,1.1,0.1,1.7,0.3c0.8-0.8,1.7-1.6,2.5-2.4
				c0.3-0.2,0.5-0.5,0.5-0.9c0-0.2,0.1-0.3,0.2-0.4c0.3-0.3,0.8-0.4,1-0.2c0.3,0.2,0.4,0.6,0.1,1c-0.5,0.6-1.1,1.2-1.6,1.8
				c-0.3,0.3-0.5,0.6-0.8,0.9c0.9,0.2,1.8-0.1,2.6,0.1c1-1.1,1.9-2.1,2.9-3.1c0.1-0.1,0.3-0.3,0.4-0.4c0.2-0.2,0.5-0.2,0.7,0
				s0.3,0.4,0.1,0.7c-0.3,0.3-0.5,0.7-0.8,1c-0.6,0.6-1.1,1.2-1.6,1.9c0.6,0,1.1,0,1.6,0c0.2,0,0.3-0.1,0.5-0.3
				c0.9-1,1.8-2.1,2.7-3.1l0.1-0.1c0.2-0.3,0.6-0.4,0.8-0.2c0.2,0.2,0.3,0.7,0.1,1c-0.6,0.7-1.2,1.4-1.8,2.1
				c-0.2,0.2-0.3,0.4-0.4,0.7c0.8,0.2,1.5,0.1,2.2,0.1c1.2-1.2,2.4-2.4,3.6-3.7c0.2,0,0.5,0,0.7,0.4c0.1,0.3,0,0.6-0.2,0.8
				c-0.8,0.7-1.5,1.5-2.3,2.2c0,0-0.1,0.1-0.1,0.2c0.6,0,1.2,0,1.8,0c0.2,0,0.4-0.1,0.6-0.2c0.5-0.6,1-1.2,1.6-1.9
				c0.4-0.5,0.7-1,1.1-1.5c0.3-0.3,0.6-0.3,0.9-0.1c0.3,0.2,0.3,0.7,0,1c-0.7,0.8-1.4,1.5-2.1,2.4c0.5,0.2,0.9,0,1.2,0.1
				c0.8,0.2,1.4-0.2,1.9-0.8c0.6-0.8,1.3-1.6,2-2.3c0.3-0.3,0.7-0.4,1-0.2c0.3,0.2,0.3,0.6,0,0.9c-0.4,0.5-0.9,0.9-1.3,1.4
				c-0.3,0.3-0.5,0.7-0.8,1.1c0.8,0.1,1.4,0.1,2-0.3c0.9-0.7,1.9-1.4,2.5-2.4c0.1-0.1,0.1-0.3,0.2-0.4c0.2-0.2,0.3-0.4,0.5-0.6
				c0.3-0.2,0.6-0.2,0.8,0.1c0.2,0.2,0.4,0.5,0.1,0.8c-0.5,0.6-1,1.2-1.5,1.8c-0.4,0.4-0.8,0.7-1.2,1.2c0.6,0.2,1.2,0.2,1.7,0.2
				c0.1,0,0.1,0,0.2-0.1c1.2-1,2.3-2,3.2-3.2c0.2-0.2,0.2-0.4,0.4-0.6c0.1-0.2,0.2-0.3,0.3-0.4c0.4-0.3,0.7-0.3,0.9-0.1
				c0.2,0.2,0.2,0.7,0,1c-0.5,0.5-1,1-1.5,1.6s-1.1,1.2-1.7,1.9c0.9,0,1.7,0,2.5,0c0.5-0.5,1-0.9,1.5-1.5c0.8-0.8,1.5-1.7,2.3-2.6
				c0.2-0.2,0.3-0.5,0.7-0.4c0.5,0.1,0.7,0.5,0.4,0.9c-0.3,0.4-0.7,0.8-1,1.2c-0.7,0.7-1.3,1.5-2.1,2.4c0.5,0,0.9,0,1.2,0
				c0.4,0,0.8,0,1-0.1c0.3-0.4,0.4-0.8,0.7-1.1c0.9-0.8,1.7-1.7,2.3-2.7c0.1-0.2,0.3-0.3,0.4-0.4c0.2-0.2,0.5-0.4,0.7-0.1
				c0.3,0.3,0.4,0.7,0.1,1c-0.5,0.6-1.1,1.2-1.6,1.8c-0.4,0.4-0.7,0.9-1.2,1.5c0.8,0.1,1.4,0,2.1,0c0.1,0,0.2-0.1,0.3-0.2
				c0.7-0.8,1.4-1.7,2.2-2.5c0.4-0.5,0.8-0.9,1.2-1.4c0.3-0.3,0.5-0.3,0.9-0.1c0.3,0.2,0.4,0.5,0.2,0.8c-0.1,0.2-0.3,0.4-0.5,0.6
				c-0.9,0.7-1.5,1.6-2.2,2.4c-0.1,0.1,0,0.2-0.1,0.3c0.7,0,1.3-0.1,1.9-0.1c0.1,0,0.2-0.1,0.3-0.3c0.8-1.1,1.7-1.9,2.7-2.8
				c0.2-0.2,0.4-0.5,0.6-0.8c0.2-0.2,0.4-0.4,0.6-0.6c0.3-0.2,0.5-0.1,0.8,0.1c0.2,0.2,0.2,0.5,0.1,0.7c-0.1,0.1-0.2,0.3-0.3,0.4
				c-0.9,0.9-1.8,1.8-2.8,2.7c-0.1,0.1-0.2,0.3-0.3,0.4c0.4,0.2,0.8,0,1.2,0.1c0.4,0,0.8,0,1.2,0c0.4-0.9,1.2-1.5,1.8-2.1
				c0.6-0.7,1.4-1.2,1.9-2c0.2-0.4,0.6-0.4,0.9-0.3c0.4,0.2,0.5,0.5,0.4,1c0,0.1-0.2,0.2-0.3,0.3c-1,1-2,2-3.2,3
				c0.9,0.2,1.7,0.1,2.5-0.1c0.1,0,0.1-0.1,0.2-0.2c0.7-0.8,1.4-1.6,2.1-2.3c0.3-0.4,0.5-0.8,0.8-1.1c0.3-0.3,0.6-0.4,1-0.3
				c0.3,0.1,0.5,0.4,0.3,0.7c-0.2,0.4-0.4,0.7-0.7,1c-0.5,0.6-1,1.2-1.6,1.7c-0.1,0.1-0.2,0.3-0.3,0.5c0.6,0.1,1.2,0.2,1.7,0.1
				c0.8-0.2,1.1,0.2,1.3,0.8c-0.2,0.4-0.6,0.6-1.1,0.6s-0.9-0.1-1.4-0.1c-0.1,0-0.3-0.1-0.4,0c-0.7,0.3-1.4,0-2.1,0.1
				c-1,0.1-2-0.1-2.9,0.1c-1.1,0.2-2.2,0.2-3.3,0.1c-0.3,0-0.6,0.1-1,0.1c-0.9,0.1-1.9,0.1-2.8,0.1c-0.4,0-0.7-0.1-1.1-0.1
				c-0.6,0-1.1,0.2-1.7,0c-0.4,0.3-0.9,0.1-1.4,0.2c-0.3,0-0.7,0-1,0c-0.7,0-1.3,0-2,0c-1.5,0-3-0.1-4.5,0c-1.1,0.1-2.2-0.1-3.3-0.2
				c-0.6-0.1-1.2,0.1-1.8,0c-0.8,0-1.5-0.2-2.3-0.2c-0.9,0-1.8,0.1-2.8,0.2c-0.5,0-1.1,0-1.6,0s-0.9,0.1-1.4,0.1
				c-3.6,0-7.2,0-10.9,0c-1,0-2,0-3.1,0c-1.4-0.1-2.8-0.2-4.2-0.2c-1.4-0.1-2.8-0.1-4.3-0.1c-1,0-1.9,0-2.9,0c-0.8,0-1.6,0-2.4,0
				c-1.5-0.1-3.1-0.2-4.6-0.2c-0.7,0-1.4,0-2.1-0.1c-0.6,0-1.2-0.1-1.8-0.1h-0.1c-1,0.2-2,0.1-3,0.1s-2,0-3,0c-1.3,0-2.6-0.1-4-0.1
				c-0.6,0-1.1-0.1-1.7-0.2c-0.1,0-0.2-0.1-0.3-0.1c-1.9,0.3-3.9,0.1-5.8,0.1c-1.5,0.1-2.9,0.2-4.4,0.2c-1,0-1.9,0-2.9,0
				c-1.6,0-3.1,0-4.7-0.1c-1.7-0.1-3.5,0-5.2,0c-3.1,0.1-6.2,0.2-9.3,0.2c-1.2,0-2.3-0.1-3.5-0.1c-1.2-0.1-2.5-0.2-3.7-0.3
				c-1.2-0.1-2.5-0.1-3.7-0.1c-1.3,0-2.6,0.1-3.9,0.2C29.3,101.7,28.9,101.7,28.6,101.1z"/>
			<path class="st0" d="M165.1,104.4c-0.1,0.5-0.5,0.8-0.8,1.1c-0.6,0.6-1.2,1.3-1.8,1.9c-0.1,0.1-0.1,0.2-0.2,0.3
				c-0.3,0.2-0.6,0.2-0.9,0c-0.2-0.2-0.2-0.6,0-0.8c0.3-0.3,0.6-0.6,1-1c0.2-0.2,0.3-0.4,0.5-0.6c-1.3-0.3-2,0.5-2.7,1.3
				c-0.4,0.5-0.8,1-1.2,1.5c-0.2,0.3-0.5,0.3-0.8,0.2c-0.3-0.1-0.4-0.3-0.3-0.6c0-0.1,0-0.2-0.1-0.4c0.6-0.6,1.2-1.2,2-1.9
				c-0.4,0-0.8,0-1.1-0.1c-0.9-0.1-1.6,0.2-2.2,1c-0.3,0.5-0.8,1-1.2,1.5c-0.3,0.5-0.7,0.7-1.3,0.6c-0.2-0.6-0.1-1,0.4-1.4
				c0.4-0.4,0.9-0.7,1.3-1.2c0.1-0.1,0.2-0.4,0.4-0.6c-0.6,0-1.1,0-1.6,0c-0.2,0-0.4,0.1-0.5,0.2c-0.8,0.8-1.5,1.7-2.3,2.5
				c-0.4,0.4-0.5,0.5-1.2,0.3c-0.2-0.4-0.1-0.8,0.3-1.1c0.6-0.5,1-1,1.6-1.6c0.1-0.1,0.2-0.3,0.3-0.5c-0.1,0-0.2,0-0.3-0.1
				c-1.1-0.3-1.4-0.2-2.1,0.7c-0.7,0.8-1.4,1.6-2.1,2.3c-0.4,0.4-0.8,0.4-1,0.1s-0.2-0.7,0.3-1c0.8-0.6,1.4-1.4,2-2.1
				c-0.8-0.2-1.5-0.1-2.3-0.1c-0.1,0-0.3,0.1-0.3,0.2c-0.7,0.9-1.4,1.8-2.2,2.7c-0.1,0.2-0.3,0.3-0.5,0.4c-0.3,0.1-0.6,0-0.7-0.2
				s-0.1-0.5,0.1-0.7c0.4-0.4,0.8-0.8,1.2-1.3c0.3-0.3,0.5-0.7,0.8-1.1c-0.7,0-1.2-0.1-1.7,0c-0.4,0.1-0.7,0.4-1,0.7
				c-0.6,0.5-1.1,1.1-1.6,1.6c-0.2,0.2-0.4,0.5-0.5,0.7c-0.4,0.5-0.5,0.5-1.1,0.2c-0.1-0.5,0-0.9,0.4-1.2c0.6-0.5,1.1-1.2,1.7-1.8
				c-0.1-0.1-0.2-0.1-0.2-0.1c-0.7,0-1.4,0-2,0.1c-0.2,0-0.4,0.2-0.5,0.4c-0.4,0.4-0.7,0.7-1,1.1c-0.4,0.4-0.7,0.9-1.1,1.3
				c-0.1,0.1-0.1,0.2-0.2,0.3c-0.2,0.1-0.5,0.1-0.7,0.1c-0.1-0.1-0.2-0.4-0.2-0.6s0.2-0.5,0.4-0.7c0.3-0.3,0.5-0.6,0.8-0.9
				c0.2-0.3,0.5-0.6,0.8-1c-0.3-0.1-0.5-0.1-0.7-0.1c-0.6,0-1.1,0-1.7,0.1c-0.2,0-0.5,0.1-0.6,0.3c-0.8,0.8-1.6,1.6-2.3,2.4
				c-0.2,0.2-0.3,0.5-0.6,0.7c-0.2,0.2-0.4,0.3-0.6,0.4c-0.3,0.1-0.5-0.1-0.5-0.5c-0.1-0.4,0.1-0.6,0.3-0.9c0.6-0.6,1.2-1.3,1.8-1.9
				c0.1-0.1,0.2-0.3,0.4-0.5c-0.7,0-1.3,0-1.9,0c-0.1,0-0.2,0.1-0.3,0.2c-0.7,0.7-1.3,1.5-2,2.2c-0.1,0.1-0.2,0.3-0.3,0.5
				c-0.1,0.1-0.1,0.3-0.2,0.4c-0.3,0.4-0.9,0.5-1.1,0.3c-0.3-0.2-0.3-0.8,0-1.1c0.6-0.7,1.2-1.3,1.7-2c0.1-0.1,0.2-0.3,0.4-0.5
				c-0.3,0-0.5,0-0.7,0c-0.1,0-0.3,0.1-0.4,0c-1.4-0.3-2.2,0.6-3,1.4c-0.5,0.5-0.9,1.1-1.4,1.6c-0.3,0.4-0.6,0.2-1,0.1
				c-0.2-0.5-0.1-0.9,0.2-1.2c0.3-0.3,0.6-0.6,0.9-0.9s0.6-0.5,0.8-1c-0.8,0-1.6,0-2.4,0c-0.1,0-0.2,0.1-0.3,0.2
				c-0.6,0.6-1.1,1.3-1.6,2c-0.2,0.3-0.3,0.6-0.5,0.8c-0.2,0.3-0.4,0.6-0.8,0.7s-0.7,0-0.7-0.5c0-0.2,0.1-0.5,0.2-0.7
				c0.5-0.7,1.1-1.3,1.7-2c0.1-0.1,0.2-0.3,0.4-0.6c-0.8,0-1.4,0.1-2,0.1c-0.1,0-0.3,0.1-0.4,0.2c-0.7,0.7-1.3,1.5-1.9,2.2
				c-0.2,0.2-0.4,0.4-0.6,0.6s-0.5,0.3-0.7,0.1c-0.3-0.3-0.3-0.6,0-0.9s0.7-0.6,1-0.9c0.4-0.4,0.7-0.8,1.1-1.3
				c-0.8,0-1.4-0.1-2.1-0.1c-0.1,0-0.3,0.1-0.4,0.2c-0.5,0.5-1,1-1.5,1.5s-0.9,1.1-1.3,1.6c-0.1,0.1-0.2,0.1-0.2,0.2
				c-0.4,0.3-0.7,0.3-0.9,0.1c-0.2-0.2-0.2-0.6,0.1-1c0.7-0.8,1.4-1.5,2-2.3c0.1-0.1,0.1-0.1,0.3-0.3c-0.4,0-0.7,0-1,0s-0.7,0.1-1,0
				c-0.7-0.1-1.1,0.3-1.5,0.8c-0.5,0.7-1.1,1.4-1.6,2.1c-0.2,0.3-0.5,0.3-0.8,0.2c-0.3-0.1-0.4-0.3-0.4-0.5c0-0.1,0-0.2,0-0.3
				c0.7-0.8,1.3-1.5,1.9-2.2c-0.6-0.3-1.2-0.2-1.8-0.2c-0.3,0-0.7,0-1,0c-0.2,0-0.3,0.1-0.5,0.3c-0.5,0.5-1.1,1.1-1.6,1.6
				s-1,1-1.5,1.6c-0.2-0.1-0.5-0.2-0.6-0.4c-0.2-0.3,0-0.6,0.2-0.8c0.6-0.6,1.2-1.2,1.8-1.8c0.1-0.1,0.1-0.2,0.2-0.4
				c-0.7-0.3-1.4-0.3-2.2-0.1c-0.1,0-0.3,0.1-0.4,0.2c-0.5,0.6-1.1,1.3-1.6,1.9c-0.1,0.1-0.2,0.3-0.3,0.4c-0.4,0.7-0.5,0.8-1.3,0.5
				c-0.1-0.4-0.1-0.8,0.2-1.1c0.5-0.6,1-1.2,1.5-1.8c-0.6-0.3-1.3-0.3-1.9-0.4c-0.1,0-0.3,0.2-0.4,0.3c-0.8,0.8-1.6,1.7-2.3,2.6
				c-0.3,0.4-0.6,0.5-1,0.3c-0.1-0.5-0.1-0.9,0.3-1.3c0.6-0.5,1.1-1.1,1.7-1.7c-0.2,0-0.4-0.1-0.5-0.1c-0.3,0-0.6,0-0.9,0
				c-0.2,0-0.4,0.1-0.6,0.2c-0.7,0.7-1.3,1.3-2,2c-0.1,0.1-0.2,0.2-0.2,0.4c0,0.6-0.5,0.8-0.9,1c-0.1-0.1-0.3-0.1-0.4-0.2
				c-0.4-0.3-0.4-0.6-0.1-0.9c0.6-0.7,1.3-1.4,1.9-2.2c0.1-0.1,0.1-0.2,0.1-0.3c-0.8,0-1.5-0.1-2.2-0.1c-0.2,0-0.5,0.2-0.7,0.4
				c-0.7,0.8-1.4,1.6-2.1,2.4c-0.1,0.1-0.2,0.3-0.3,0.4c-0.3,0.2-0.5,0.1-0.7-0.1s-0.2-0.4-0.1-0.6c0.2-0.2,0.4-0.4,0.5-0.7
				c0.4-0.5,0.9-1,1.3-1.6c0,0,0-0.1,0.1-0.3c-0.7,0-1.3,0-1.9,0c0,0,0-0.1-0.1-0.1c-0.2,0.3-0.4,0.5-0.6,0.8
				c-0.6,0.9-1.2,1.7-1.9,2.6c-0.1,0.1-0.2,0.2-0.3,0.2c-0.6,0.6-0.8,0.6-1.3-0.2c0.7-1.1,1.7-2,2.3-3.2c-0.5-0.4-1.1-0.1-1.7-0.3
				c-0.8,0.8-1.7,1.6-2.5,2.4c-0.3,0.2-0.5,0.5-0.5,0.9c0,0.2-0.1,0.3-0.2,0.4c-0.3,0.3-0.8,0.4-1,0.2c-0.3-0.2-0.4-0.6-0.1-1
				c0.5-0.6,1.1-1.2,1.6-1.8c0.3-0.3,0.5-0.6,0.8-0.9c-0.9-0.2-1.8,0.1-2.6-0.1c-1,1.1-1.9,2.1-2.9,3.1c-0.1,0.1-0.3,0.3-0.4,0.4
				c-0.2,0.2-0.5,0.2-0.7,0s-0.3-0.4-0.1-0.7c0.3-0.3,0.5-0.7,0.8-1c0.6-0.6,1.1-1.2,1.6-1.9c-0.6,0-1.1,0-1.6,0
				c-0.2,0-0.3,0.1-0.5,0.3c-0.9,1-1.8,2.1-2.7,3.1l-0.1,0.1c-0.2,0.3-0.6,0.4-0.8,0.2c-0.2-0.2-0.3-0.7-0.1-1
				c0.6-0.7,1.2-1.4,1.8-2.1c0.2-0.2,0.3-0.4,0.4-0.7c-0.8-0.2-1.5-0.1-2.2-0.1c-1.2,1.2-2.4,2.4-3.6,3.7c-0.2,0-0.5,0-0.7-0.4
				c-0.1-0.3,0-0.6,0.2-0.8c0.8-0.7,1.5-1.5,2.3-2.2c0,0,0.1-0.1,0.1-0.2c-0.6,0-1.2,0-1.8,0c-0.2,0-0.4,0.1-0.6,0.2
				c-0.5,0.6-1,1.2-1.6,1.9c-0.4,0.5-0.7,1-1.1,1.4c-0.3,0.3-0.6,0.3-0.9,0.1c-0.3-0.2-0.3-0.7,0-1c0.7-0.8,1.4-1.5,2.1-2.4
				c-0.5-0.2-0.9,0-1.2-0.1c-0.8-0.2-1.4,0.2-1.9,0.8c-0.6,0.8-1.3,1.6-2,2.3c-0.3,0.3-0.7,0.4-1,0.2c-0.3-0.2-0.3-0.6,0-0.9
				c0.4-0.5,0.9-0.9,1.3-1.4c0.3-0.3,0.5-0.7,0.8-1.1c-0.8-0.1-1.4-0.1-2,0.3c-0.9,0.7-1.9,1.4-2.5,2.4c-0.1,0.1-0.1,0.3-0.2,0.4
				c-0.2,0.2-0.3,0.4-0.5,0.6c-0.3,0.2-0.6,0.2-0.8-0.1c-0.2-0.2-0.4-0.5-0.1-0.8c0.5-0.6,1-1.2,1.5-1.8c0.4-0.4,0.8-0.7,1.2-1.2
				c-0.6-0.2-1.2-0.2-1.7-0.2c-0.1,0-0.1,0-0.2,0.1c-1.2,1-2.3,2-3.2,3.2c-0.1,0.2-0.2,0.4-0.4,0.6c-0.1,0.2-0.2,0.3-0.3,0.4
				c-0.4,0.3-0.7,0.3-0.9,0.1c-0.2-0.2-0.2-0.7,0-1c0.5-0.5,1-1,1.5-1.6s1.1-1.2,1.7-1.9c-0.9,0-1.7,0-2.5,0c-0.5,0.5-1,0.9-1.5,1.5
				c-0.8,0.8-1.5,1.7-2.3,2.6c-0.2,0.2-0.3,0.5-0.7,0.4c-0.5-0.1-0.7-0.5-0.4-0.9c0.3-0.4,0.7-0.8,1-1.2c0.7-0.7,1.3-1.5,2.1-2.3
				c-0.5,0-0.9,0-1.2,0c-0.4,0-0.8,0-1,0.1c-0.3,0.4-0.4,0.8-0.7,1.1c-0.9,0.8-1.7,1.7-2.3,2.7c-0.1,0.2-0.3,0.3-0.4,0.4
				c-0.2,0.2-0.5,0.4-0.7,0.1c-0.3-0.3-0.4-0.7-0.1-1c0.5-0.6,1-1.2,1.6-1.7c0.4-0.4,0.7-0.9,1.2-1.5c-0.8-0.1-1.4,0-2.1,0
				c-0.1,0-0.2,0.1-0.3,0.2c-0.7,0.8-1.4,1.7-2.2,2.5c-0.4,0.5-0.8,0.9-1.2,1.4c-0.3,0.3-0.5,0.4-0.9,0.1c-0.3-0.2-0.4-0.5-0.2-0.8
				c0.1-0.2,0.3-0.4,0.5-0.6c0.9-0.7,1.5-1.6,2.2-2.4c0.1-0.1,0-0.2,0.1-0.3c-0.7,0-1.3,0.1-1.9,0.1c-0.1,0-0.2,0.1-0.3,0.3
				c-0.8,1.1-1.7,1.9-2.7,2.8c-0.2,0.2-0.4,0.5-0.6,0.8c-0.2,0.2-0.4,0.4-0.6,0.6c-0.3,0.2-0.5,0.1-0.8-0.1
				c-0.2-0.2-0.2-0.5-0.1-0.7c0.1-0.1,0.2-0.3,0.3-0.4c0.9-0.9,1.8-1.8,2.8-2.7c0.1-0.1,0.2-0.3,0.3-0.4c-0.4-0.2-0.8,0-1.2-0.1
				c-0.4,0-0.8,0-1.2,0c-0.4,0.9-1.2,1.5-1.8,2.1c-0.6,0.7-1.4,1.2-1.9,2c-0.2,0.4-0.6,0.4-0.9,0.3c-0.4-0.2-0.5-0.5-0.4-1
				c0-0.1,0.2-0.2,0.3-0.3c1-1,2-2,3.2-3c-0.9-0.2-1.7-0.1-2.5,0.1c-0.1,0-0.1,0.1-0.2,0.2c-0.7,0.8-1.4,1.6-2.1,2.4
				c-0.3,0.4-0.5,0.8-0.8,1.1c-0.3,0.3-0.6,0.4-1,0.3c-0.3-0.1-0.5-0.4-0.3-0.7c0.2-0.4,0.4-0.7,0.7-1c0.5-0.6,1-1.2,1.6-1.7
				c0.1-0.1,0.2-0.3,0.3-0.5c-0.6-0.1-1.2-0.2-1.7-0.1c-0.8,0.2-1.1-0.2-1.3-0.8c0.2-0.4,0.6-0.6,1.1-0.6s0.9,0.1,1.4,0.1
				c0.1,0,0.3,0.1,0.4,0c0.7-0.3,1.4,0,2.1-0.1c1-0.1,2,0.1,2.9-0.1c1.1-0.2,2.2-0.2,3.3-0.1c0.3,0,0.6-0.1,1-0.1
				c0.9-0.1,1.9-0.1,2.8-0.1c0.4,0,0.7,0.1,1.1,0.1c0.6,0,1.1-0.2,1.7,0c0.4-0.3,0.9-0.1,1.4-0.2c0.3,0,0.7,0,1,0c0.7,0,1.3,0,2,0
				c1.5,0,3,0.1,4.5,0c1.1-0.1,2.2,0.1,3.3,0.2c0.6,0.1,1.2-0.1,1.8,0c0.8,0,1.5,0.2,2.3,0.2c0.9,0,1.8-0.1,2.8-0.2
				c0.5,0,1.1,0,1.6,0s0.9-0.1,1.4-0.1c3.6,0,7.2,0,10.9,0c1,0,2,0,3.1,0c1.4,0.1,2.8,0.2,4.2,0.2c1.4,0.1,2.8,0.1,4.3,0.1
				c1,0,1.9,0,2.9,0c0.8,0,1.6,0,2.4,0c1.5,0.1,3.1,0.2,4.6,0.2c0.7,0,1.4,0,2.1,0.1c0.6,0,1.2,0.1,1.8,0.1h0.1c1-0.2,2-0.1,3-0.1
				s2,0,3,0c1.3,0,2.6,0.1,4,0.1c0.6,0,1.1,0.1,1.7,0.2c0.1,0,0.2,0.1,0.3,0.1c1.9-0.3,3.9-0.1,5.8-0.1c1.5-0.1,2.9-0.2,4.4-0.2
				c1,0,1.9,0,2.9,0c1.6,0,3.1,0,4.7,0.1c1.7,0.1,3.5,0,5.2,0c3.1-0.1,6.2-0.2,9.3-0.2c1.2,0,2.3,0.1,3.5,0.1
				c1.2,0.1,2.5,0.2,3.7,0.3c1.2,0.1,2.5,0.1,3.7,0.1c1.3,0,2.6-0.1,3.9-0.2C164.3,103.7,164.8,103.8,165.1,104.4z"/>
		</g>
	</g>
	<g>
		<defs>
			<path id="SVGID_3_" d="M70.8,94v44.9c19.8-11.6,31.6-22.3,34.4-32c0-4.3,0-8.6,0-13H70.8V94z"/>
		</defs>
		<clipPath id="SVGID_4_">
			<use xlink:href="#SVGID_3_"  style="overflow:visible;"/>
		</clipPath>
		<g class="st10">
			<path class="st0" d="M28.6,115c0.1-0.5,0.5-0.8,0.8-1.1c0.6-0.6,1.2-1.3,1.8-1.9c0.1-0.1,0.1-0.2,0.2-0.3c0.3-0.2,0.6-0.2,0.8,0
				s0.2,0.6,0,0.8c-0.3,0.3-0.6,0.6-1,1c-0.2,0.2-0.3,0.4-0.5,0.6c1.3,0.3,2-0.5,2.7-1.3c0.4-0.5,0.8-1,1.2-1.5
				c0.2-0.3,0.5-0.3,0.8-0.2c0.3,0.1,0.4,0.3,0.3,0.6c0,0.1,0,0.2,0.1,0.4c-0.6,0.6-1.2,1.2-2,1.9c0.4,0,0.8,0,1.1,0.1
				c0.9,0.1,1.6-0.2,2.2-1c0.3-0.5,0.8-1,1.2-1.5c0.3-0.5,0.7-0.7,1.3-0.6c0.2,0.6,0.1,1-0.4,1.4c-0.4,0.4-0.9,0.7-1.3,1.1
				c-0.1,0.1-0.2,0.4-0.4,0.6c0.6,0,1.1,0,1.6,0c0.2,0,0.4-0.1,0.5-0.2c0.8-0.8,1.5-1.7,2.3-2.5c0.4-0.4,0.5-0.5,1.2-0.3
				c0.2,0.4,0.1,0.8-0.3,1.1c-0.6,0.5-1,1-1.6,1.6c-0.1,0.1-0.2,0.3-0.3,0.5c0.1,0,0.2,0,0.3,0.1c1.1,0.3,1.4,0.2,2.1-0.7
				c0.7-0.8,1.4-1.6,2.1-2.3c0.4-0.4,0.8-0.4,1-0.1s0.2,0.7-0.3,1c-0.8,0.6-1.4,1.4-2,2.1c0.8,0.2,1.5,0.1,2.3,0.1
				c0.1,0,0.3-0.1,0.3-0.2c0.7-0.9,1.4-1.8,2.2-2.7c0.1-0.2,0.3-0.3,0.5-0.4c0.3-0.1,0.6,0,0.7,0.2s0.1,0.5-0.1,0.7
				c-0.4,0.4-0.8,0.8-1.2,1.3c-0.3,0.3-0.5,0.7-0.8,1.1c0.7,0,1.2,0.1,1.7,0c0.4-0.1,0.7-0.4,1-0.7c0.6-0.5,1.1-1.1,1.6-1.6
				c0.2-0.2,0.4-0.5,0.5-0.7c0.4-0.5,0.5-0.5,1.1-0.2c0.1,0.5,0,0.9-0.4,1.2c-0.6,0.6-1.1,1.2-1.7,1.8c0.1,0.1,0.2,0.1,0.2,0.1
				c0.7,0,1.4,0,2-0.1c0.2,0,0.4-0.2,0.5-0.4c0.4-0.3,0.7-0.7,1-1.1c0.4-0.4,0.7-0.9,1-1.3c0.1-0.1,0.1-0.2,0.2-0.3
				c0.2-0.1,0.5-0.1,0.7-0.1c0.1,0.1,0.2,0.4,0.2,0.6s-0.2,0.5-0.4,0.7c-0.3,0.3-0.5,0.6-0.8,0.9c-0.2,0.3-0.5,0.6-0.8,1
				c0.3,0.1,0.5,0.1,0.7,0.1c0.6,0,1.1,0,1.7-0.1c0.2,0,0.5-0.1,0.6-0.3c0.8-0.8,1.6-1.6,2.3-2.4c0.2-0.2,0.3-0.5,0.6-0.7
				c0.2-0.2,0.4-0.3,0.6-0.4c0.3-0.1,0.5,0.1,0.5,0.5c0.1,0.4-0.1,0.6-0.3,0.9c-0.6,0.6-1.2,1.3-1.8,1.9c-0.1,0.1-0.2,0.3-0.4,0.5
				c0.7,0,1.3,0,1.9,0c0.1,0,0.2-0.1,0.3-0.2c0.7-0.7,1.3-1.5,2-2.2c0.1-0.1,0.2-0.3,0.3-0.5c0.1-0.1,0.1-0.3,0.2-0.4
				c0.3-0.4,0.9-0.5,1.1-0.3c0.3,0.2,0.3,0.8,0,1.1c-0.6,0.7-1.2,1.3-1.7,2c-0.1,0.1-0.2,0.3-0.4,0.5c0.3,0,0.5,0,0.7,0
				c0.1,0,0.3-0.1,0.4,0c1.4,0.3,2.2-0.6,3-1.4c0.5-0.5,0.9-1.1,1.4-1.6c0.3-0.4,0.6-0.2,1-0.1c0.2,0.5,0.1,0.9-0.2,1.2
				c-0.3,0.3-0.6,0.6-0.9,0.9s-0.6,0.5-0.8,1c0.8,0,1.6,0,2.4,0c0.1,0,0.2-0.1,0.3-0.2c0.6-0.6,1.1-1.3,1.6-2
				c0.2-0.3,0.3-0.6,0.5-0.8c0.2-0.3,0.4-0.6,0.8-0.7s0.7,0,0.7,0.5c0,0.2-0.1,0.5-0.2,0.7c-0.5,0.7-1.1,1.3-1.6,2
				c-0.1,0.1-0.2,0.3-0.4,0.6c0.8,0,1.4-0.1,2-0.1c0.1,0,0.3-0.1,0.3-0.2c0.7-0.7,1.3-1.5,1.9-2.2c0.2-0.2,0.4-0.4,0.6-0.6
				s0.5-0.3,0.7-0.1c0.3,0.3,0.3,0.6,0,0.9s-0.7,0.6-1,0.9c-0.4,0.4-0.7,0.8-1.1,1.3c0.8,0,1.4,0.1,2.1,0.1c0.1,0,0.3-0.1,0.4-0.2
				c0.5-0.5,1-1,1.5-1.5s0.9-1.1,1.3-1.6c0.1-0.1,0.2-0.1,0.2-0.2c0.4-0.3,0.7-0.3,0.9-0.1c0.2,0.2,0.2,0.6-0.1,1
				c-0.7,0.8-1.4,1.5-2,2.3c-0.1,0.1-0.1,0.1-0.3,0.3c0.4,0,0.7,0,1,0s0.7-0.1,1,0c0.7,0.1,1.1-0.3,1.5-0.8c0.5-0.7,1.1-1.4,1.6-2.1
				c0.2-0.3,0.5-0.3,0.8-0.2c0.3,0.1,0.4,0.3,0.4,0.5c0,0.1,0,0.2,0,0.3c-0.7,0.8-1.3,1.5-1.9,2.2c0.6,0.2,1.2,0.2,1.8,0.2
				c0.3,0,0.7,0,1,0c0.2,0,0.3-0.1,0.5-0.3c0.5-0.5,1.1-1.1,1.6-1.6s1-1,1.5-1.6c0.2,0.1,0.5,0.2,0.6,0.4c0.2,0.3,0,0.6-0.2,0.8
				c-0.6,0.6-1.2,1.2-1.8,1.8c-0.1,0.1-0.1,0.2-0.2,0.4c0.7,0.3,1.5,0.3,2.2,0.1c0.1,0,0.3-0.1,0.4-0.2c0.5-0.6,1.1-1.3,1.6-1.9
				c0.1-0.1,0.2-0.3,0.3-0.4c0.4-0.7,0.5-0.8,1.3-0.5c0.2,0.4,0.1,0.8-0.2,1.1c-0.5,0.6-1,1.2-1.5,1.8c0.6,0.3,1.3,0.3,1.9,0.4
				c0.1,0,0.3-0.2,0.4-0.3c0.8-0.8,1.6-1.7,2.3-2.6c0.3-0.4,0.6-0.5,1-0.3c0.1,0.5,0.1,0.9-0.3,1.3c-0.6,0.5-1.1,1.1-1.7,1.7
				c0.2,0,0.4,0.1,0.5,0.1c0.3,0,0.6,0,0.9,0c0.2,0,0.4-0.1,0.6-0.2c0.7-0.7,1.3-1.3,2-2c0.1-0.1,0.2-0.2,0.2-0.4
				c0-0.6,0.5-0.8,0.9-1c0.1,0.1,0.3,0.1,0.4,0.2c0.4,0.3,0.4,0.6,0.1,0.9c-0.6,0.7-1.3,1.4-1.9,2.2c-0.1,0.1-0.1,0.2-0.1,0.3
				c0.8,0,1.5,0.1,2.2,0.1c0.2,0,0.5-0.2,0.7-0.4c0.7-0.8,1.4-1.6,2.1-2.4c0.1-0.1,0.2-0.3,0.3-0.3c0.3-0.2,0.5-0.1,0.7,0.1
				s0.2,0.4,0.1,0.6c-0.2,0.2-0.4,0.4-0.5,0.7c-0.4,0.5-0.9,1-1.3,1.6c0,0,0,0.1-0.1,0.3c0.7,0,1.3,0,1.9,0c0,0,0,0.1,0.1,0.1
				c0.2-0.2,0.4-0.5,0.6-0.8c0.6-0.9,1.2-1.7,1.9-2.6c0.1-0.1,0.2-0.2,0.3-0.2c0.6-0.6,0.8-0.6,1.3,0.2c-0.7,1.1-1.7,2-2.3,3.2
				c0.5,0.4,1.1,0.1,1.7,0.3c0.8-0.8,1.7-1.6,2.5-2.4c0.3-0.3,0.5-0.5,0.5-0.9c0-0.2,0.1-0.3,0.2-0.4c0.3-0.3,0.8-0.4,1-0.2
				c0.3,0.2,0.4,0.6,0.1,1c-0.5,0.6-1.1,1.2-1.6,1.8c-0.3,0.3-0.5,0.6-0.8,0.9c0.9,0.2,1.8-0.1,2.6,0.1c1-1.1,1.9-2.1,2.9-3.1
				c0.1-0.1,0.3-0.3,0.4-0.4c0.2-0.2,0.5-0.2,0.7,0s0.3,0.4,0.1,0.7c-0.3,0.3-0.5,0.7-0.8,1c-0.6,0.6-1.1,1.2-1.6,1.9
				c0.6,0,1.1,0,1.6,0c0.2,0,0.3-0.1,0.5-0.3c0.9-1,1.8-2.1,2.7-3.1l0.1-0.1c0.2-0.3,0.6-0.4,0.8-0.2c0.2,0.2,0.3,0.7,0.1,1
				c-0.6,0.7-1.2,1.4-1.8,2.1c-0.2,0.2-0.3,0.4-0.4,0.7c0.8,0.2,1.5,0.1,2.2,0.1c1.2-1.2,2.4-2.4,3.6-3.7c0.2,0,0.5,0,0.7,0.4
				c0.1,0.3,0,0.6-0.2,0.8c-0.8,0.7-1.5,1.5-2.3,2.2c0,0-0.1,0.1-0.1,0.2c0.6,0,1.2,0,1.8,0c0.2,0,0.4-0.1,0.6-0.2
				c0.5-0.6,1-1.2,1.6-1.9c0.4-0.5,0.7-1,1.1-1.4c0.3-0.3,0.6-0.3,0.9-0.1c0.3,0.2,0.3,0.7,0,1c-0.7,0.8-1.4,1.5-2.1,2.4
				c0.5,0.2,0.9,0,1.2,0.1c0.8,0.2,1.4-0.2,1.9-0.8c0.6-0.8,1.3-1.6,2-2.3c0.3-0.3,0.7-0.4,1-0.2c0.3,0.2,0.3,0.6,0,0.9
				c-0.4,0.5-0.9,0.9-1.3,1.4c-0.3,0.3-0.5,0.7-0.8,1.1c0.8,0.1,1.4,0.1,2-0.3c0.9-0.7,1.9-1.4,2.5-2.4c0.1-0.1,0.1-0.3,0.2-0.4
				c0.2-0.2,0.3-0.4,0.5-0.6c0.3-0.2,0.6-0.2,0.8,0.1c0.2,0.2,0.4,0.5,0.1,0.8c-0.5,0.6-1,1.2-1.5,1.8c-0.4,0.4-0.8,0.8-1.2,1.2
				c0.6,0.2,1.2,0.2,1.7,0.2c0.1,0,0.1,0,0.2-0.1c1.2-1,2.3-2,3.2-3.2c0.2-0.2,0.2-0.4,0.4-0.6c0.1-0.2,0.2-0.3,0.3-0.4
				c0.4-0.3,0.7-0.3,0.9-0.1c0.2,0.2,0.2,0.7,0,1c-0.5,0.5-1,1-1.5,1.6s-1.1,1.2-1.7,1.9c0.9,0,1.7,0,2.5,0c0.5-0.5,1-0.9,1.5-1.5
				c0.8-0.8,1.5-1.7,2.3-2.6c0.2-0.2,0.3-0.5,0.7-0.4c0.5,0.1,0.7,0.5,0.4,0.9c-0.3,0.4-0.7,0.8-1,1.2c-0.7,0.7-1.3,1.5-2.1,2.4
				c0.5,0,0.9,0,1.2,0c0.4,0,0.8,0,1-0.1c0.3-0.4,0.4-0.8,0.7-1c0.9-0.8,1.7-1.7,2.3-2.7c0.1-0.2,0.3-0.3,0.4-0.4
				c0.2-0.2,0.5-0.4,0.7-0.1c0.3,0.3,0.4,0.7,0.1,1c-0.5,0.6-1.1,1.2-1.6,1.7c-0.4,0.4-0.7,0.9-1.2,1.5c0.8,0.1,1.4,0,2.1,0
				c0.1,0,0.2-0.1,0.3-0.2c0.7-0.8,1.4-1.7,2.2-2.5c0.4-0.5,0.8-0.9,1.2-1.4c0.3-0.3,0.5-0.3,0.9-0.1c0.3,0.2,0.4,0.5,0.2,0.8
				c-0.1,0.2-0.3,0.4-0.5,0.6c-0.9,0.7-1.5,1.6-2.2,2.4c-0.1,0.1,0,0.2-0.1,0.3c0.7,0,1.3-0.1,1.9-0.1c0.1,0,0.2-0.1,0.3-0.3
				c0.8-1.1,1.7-1.9,2.7-2.8c0.2-0.2,0.4-0.5,0.6-0.8c0.2-0.2,0.4-0.4,0.6-0.6c0.3-0.2,0.5-0.1,0.8,0.1c0.2,0.2,0.2,0.5,0.1,0.7
				c-0.1,0.1-0.2,0.3-0.3,0.4c-0.9,0.9-1.8,1.8-2.8,2.7c-0.1,0.1-0.2,0.3-0.3,0.4c0.4,0.2,0.8,0,1.2,0.1c0.4,0,0.8,0,1.2,0
				c0.4-0.9,1.2-1.5,1.8-2.1c0.6-0.7,1.4-1.2,1.9-2c0.2-0.4,0.6-0.4,0.9-0.3c0.4,0.2,0.5,0.5,0.4,1c0,0.1-0.2,0.2-0.3,0.3
				c-1,1-2,2-3.2,3c0.9,0.2,1.7,0.1,2.5-0.1c0.1,0,0.1-0.1,0.2-0.2c0.7-0.8,1.4-1.6,2.1-2.3c0.3-0.4,0.5-0.8,0.8-1.1
				c0.3-0.3,0.6-0.4,1-0.3c0.3,0.1,0.5,0.4,0.3,0.7c-0.2,0.4-0.4,0.7-0.7,1c-0.5,0.6-1,1.2-1.6,1.7c-0.1,0.1-0.2,0.3-0.3,0.5
				c0.6,0.1,1.2,0.2,1.7,0.1c0.8-0.2,1.1,0.2,1.3,0.8c-0.2,0.4-0.6,0.6-1.1,0.6s-0.9-0.1-1.4-0.1c-0.1,0-0.3-0.1-0.4,0
				c-0.7,0.3-1.4,0-2.1,0.1c-1,0.1-2-0.1-2.9,0.1c-1.1,0.2-2.2,0.2-3.3,0.1c-0.3,0-0.6,0.1-1,0.1c-0.9,0.1-1.9,0.1-2.8,0.1
				c-0.4,0-0.7-0.1-1.1-0.1c-0.6,0-1.1,0.2-1.7,0c-0.4,0.3-0.9,0.1-1.4,0.2c-0.3,0-0.7,0-1,0c-0.7,0-1.3,0-2,0c-1.5,0-3-0.1-4.5,0
				c-1.1,0.1-2.2-0.1-3.3-0.2c-0.6-0.1-1.2,0.1-1.8,0c-0.8,0-1.5-0.2-2.3-0.2c-0.9,0-1.8,0.1-2.8,0.2c-0.5,0-1.1,0-1.6,0
				s-0.9,0.1-1.4,0.1c-3.6,0-7.2,0-10.9,0c-1,0-2,0-3.1,0c-1.4-0.1-2.8-0.2-4.2-0.2c-1.4-0.1-2.8-0.1-4.3-0.1c-1,0-1.9,0-2.9,0
				c-0.8,0-1.6,0-2.4,0c-1.5-0.1-3.1-0.2-4.6-0.2c-0.7,0-1.4,0-2.1-0.1c-0.6,0-1.2-0.1-1.8-0.1h-0.1c-1,0.2-2,0.1-3,0.1s-2,0-3,0
				c-1.3,0-2.6-0.1-4-0.1c-0.6,0-1.1-0.1-1.7-0.2c-0.1,0-0.2-0.1-0.3-0.1c-1.9,0.3-3.9,0.1-5.8,0.1c-1.5,0.1-2.9,0.2-4.4,0.2
				c-1,0-1.9,0-2.9,0c-1.6,0-3.1,0-4.7-0.1c-1.7-0.1-3.5,0-5.2,0c-3.1,0.1-6.2,0.2-9.3,0.2c-1.2,0-2.3-0.1-3.5-0.1
				c-1.2-0.1-2.5-0.2-3.7-0.3c-1.2-0.1-2.5-0.1-3.7-0.1c-1.3,0-2.6,0.1-3.9,0.2C29.3,115.7,28.9,115.6,28.6,115z"/>
			<path class="st0" d="M165.1,118.3c-0.1,0.5-0.5,0.8-0.8,1.1c-0.6,0.6-1.2,1.3-1.8,1.9c-0.1,0.1-0.1,0.2-0.2,0.3
				c-0.3,0.2-0.6,0.2-0.9,0c-0.2-0.2-0.2-0.6,0-0.8c0.3-0.3,0.6-0.6,1-1c0.2-0.2,0.3-0.4,0.5-0.6c-1.3-0.3-2,0.5-2.7,1.3
				c-0.4,0.5-0.8,1-1.2,1.5c-0.2,0.3-0.5,0.3-0.8,0.2c-0.3-0.1-0.4-0.3-0.3-0.6c0-0.1,0-0.2-0.1-0.4c0.6-0.6,1.2-1.2,2-1.9
				c-0.4,0-0.8,0-1.1-0.1c-0.9-0.1-1.6,0.2-2.2,1c-0.3,0.5-0.8,1-1.2,1.5c-0.3,0.5-0.7,0.7-1.3,0.6c-0.2-0.6-0.1-1,0.4-1.4
				c0.4-0.4,0.9-0.7,1.3-1.2c0.1-0.1,0.2-0.4,0.4-0.6c-0.6,0-1.1,0-1.6,0c-0.2,0-0.4,0.1-0.5,0.2c-0.8,0.8-1.5,1.7-2.3,2.5
				c-0.4,0.4-0.5,0.5-1.2,0.3c-0.2-0.4-0.1-0.8,0.3-1.1c0.6-0.5,1-1,1.6-1.6c0.1-0.1,0.2-0.3,0.3-0.5c-0.1,0-0.2,0-0.3-0.1
				c-1.1-0.3-1.4-0.2-2.1,0.7c-0.7,0.8-1.4,1.6-2.1,2.3c-0.4,0.4-0.8,0.4-1,0.1s-0.2-0.7,0.3-1c0.8-0.6,1.4-1.4,2-2.1
				c-0.8-0.2-1.5-0.1-2.3-0.1c-0.1,0-0.3,0.1-0.3,0.2c-0.7,0.9-1.4,1.8-2.2,2.7c-0.1,0.2-0.3,0.3-0.5,0.4c-0.3,0.1-0.6,0-0.7-0.2
				s-0.1-0.5,0.1-0.7c0.4-0.4,0.8-0.8,1.2-1.3c0.3-0.3,0.5-0.7,0.8-1.1c-0.7,0-1.2-0.1-1.7,0c-0.4,0.1-0.7,0.4-1,0.7
				c-0.6,0.5-1.1,1.1-1.6,1.6c-0.2,0.2-0.4,0.5-0.5,0.7c-0.4,0.5-0.5,0.5-1.1,0.2c-0.1-0.5,0-0.9,0.4-1.2c0.6-0.5,1.1-1.2,1.7-1.8
				c-0.1-0.1-0.2-0.1-0.2-0.1c-0.7,0-1.4,0-2,0.1c-0.2,0-0.4,0.2-0.5,0.4c-0.4,0.4-0.7,0.7-1,1.1c-0.4,0.4-0.7,0.9-1.1,1.3
				c-0.1,0.1-0.1,0.2-0.2,0.3c-0.2,0.1-0.5,0.1-0.7,0.1c-0.1-0.1-0.2-0.4-0.2-0.6s0.2-0.5,0.4-0.7c0.3-0.3,0.5-0.6,0.8-0.9
				c0.2-0.3,0.5-0.6,0.8-1c-0.3-0.1-0.5-0.1-0.7-0.1c-0.6,0-1.1,0-1.7,0.1c-0.2,0-0.5,0.1-0.6,0.3c-0.8,0.8-1.6,1.6-2.3,2.4
				c-0.2,0.2-0.3,0.5-0.6,0.7c-0.2,0.2-0.4,0.3-0.6,0.4c-0.3,0.1-0.5-0.1-0.5-0.5c-0.1-0.4,0.1-0.6,0.3-0.9c0.6-0.6,1.2-1.3,1.8-1.9
				c0.1-0.1,0.2-0.3,0.4-0.5c-0.7,0-1.3,0-1.9,0c-0.1,0-0.2,0.1-0.3,0.2c-0.7,0.7-1.3,1.5-2,2.2c-0.1,0.1-0.2,0.3-0.3,0.5
				c-0.1,0.1-0.1,0.3-0.2,0.4c-0.3,0.4-0.9,0.5-1.1,0.3c-0.3-0.2-0.3-0.8,0-1.1c0.6-0.7,1.2-1.3,1.7-2c0.1-0.1,0.2-0.3,0.4-0.5
				c-0.3,0-0.5,0-0.7,0c-0.1,0-0.3,0.1-0.4,0c-1.4-0.3-2.2,0.6-3,1.4c-0.5,0.5-0.9,1.1-1.4,1.6c-0.3,0.4-0.6,0.2-1,0.1
				c-0.2-0.5-0.1-0.9,0.2-1.2c0.3-0.3,0.6-0.6,0.9-0.9s0.6-0.5,0.8-1c-0.8,0-1.6,0-2.4,0c-0.1,0-0.2,0.1-0.3,0.2
				c-0.6,0.6-1.1,1.3-1.6,2c-0.2,0.3-0.3,0.6-0.5,0.8c-0.2,0.3-0.4,0.6-0.8,0.7s-0.7,0-0.7-0.5c0-0.2,0.1-0.5,0.2-0.7
				c0.5-0.7,1.1-1.3,1.7-2c0.1-0.1,0.2-0.3,0.4-0.6c-0.8,0-1.4,0.1-2,0.1c-0.1,0-0.3,0.1-0.4,0.2c-0.7,0.7-1.3,1.5-1.9,2.2
				c-0.2,0.2-0.4,0.4-0.6,0.6s-0.5,0.3-0.7,0.1c-0.3-0.3-0.3-0.6,0-0.9s0.7-0.6,1-0.9c0.4-0.4,0.7-0.8,1.1-1.3
				c-0.8,0-1.4-0.1-2.1-0.1c-0.1,0-0.3,0.1-0.4,0.2c-0.5,0.5-1,1-1.5,1.5s-0.9,1.1-1.3,1.6c-0.1,0.1-0.2,0.1-0.2,0.2
				c-0.4,0.3-0.7,0.3-0.9,0.1c-0.2-0.2-0.2-0.6,0.1-1c0.7-0.8,1.4-1.5,2-2.3c0.1-0.1,0.1-0.1,0.3-0.3c-0.4,0-0.7,0-1,0s-0.7,0.1-1,0
				c-0.7-0.1-1.1,0.3-1.5,0.8c-0.5,0.7-1.1,1.4-1.6,2.1c-0.2,0.3-0.5,0.3-0.8,0.2c-0.3-0.1-0.4-0.3-0.4-0.5c0-0.1,0-0.2,0-0.3
				c0.7-0.8,1.3-1.5,1.9-2.2c-0.6-0.3-1.2-0.2-1.8-0.2c-0.3,0-0.7,0-1,0c-0.2,0-0.3,0.1-0.5,0.3c-0.5,0.5-1.1,1.1-1.6,1.6
				s-1,1-1.5,1.6c-0.2-0.1-0.5-0.2-0.6-0.4c-0.2-0.3,0-0.6,0.2-0.8c0.6-0.6,1.2-1.2,1.8-1.8c0.1-0.1,0.1-0.2,0.2-0.4
				c-0.7-0.3-1.4-0.3-2.2-0.1c-0.1,0-0.3,0.1-0.4,0.2c-0.5,0.6-1.1,1.3-1.6,1.9c-0.1,0.1-0.2,0.3-0.3,0.4c-0.4,0.7-0.5,0.8-1.3,0.5
				c-0.1-0.4-0.1-0.8,0.2-1.1c0.5-0.6,1-1.2,1.5-1.8c-0.6-0.3-1.3-0.3-1.9-0.4c-0.1,0-0.3,0.2-0.4,0.3c-0.8,0.8-1.6,1.7-2.3,2.6
				c-0.3,0.4-0.6,0.5-1,0.3c-0.1-0.5-0.1-0.9,0.3-1.3c0.6-0.5,1.1-1.1,1.7-1.7c-0.2,0-0.4-0.1-0.5-0.1c-0.3,0-0.6,0-0.9,0
				c-0.2,0-0.4,0.1-0.6,0.2c-0.7,0.7-1.3,1.3-2,2c-0.1,0.1-0.2,0.2-0.2,0.4c0,0.6-0.5,0.8-0.9,1c-0.1-0.1-0.3-0.1-0.4-0.2
				c-0.4-0.3-0.4-0.6-0.1-0.9c0.6-0.7,1.3-1.4,1.9-2.2c0.1-0.1,0.1-0.2,0.1-0.3c-0.8,0-1.5-0.1-2.2-0.1c-0.2,0-0.5,0.2-0.7,0.4
				c-0.7,0.8-1.4,1.6-2.1,2.4c-0.1,0.1-0.2,0.3-0.3,0.4c-0.3,0.2-0.5,0.1-0.7-0.1s-0.2-0.4-0.1-0.6c0.2-0.2,0.4-0.4,0.5-0.7
				c0.4-0.5,0.9-1,1.3-1.6c0,0,0-0.1,0.1-0.3c-0.7,0-1.3,0-1.9,0c0,0,0-0.1-0.1-0.1c-0.2,0.3-0.4,0.5-0.6,0.8
				c-0.6,0.9-1.2,1.7-1.9,2.6c-0.1,0.1-0.2,0.2-0.3,0.2c-0.6,0.6-0.8,0.6-1.3-0.2c0.7-1.1,1.7-2,2.3-3.2c-0.5-0.4-1.1-0.1-1.7-0.3
				c-0.8,0.8-1.7,1.6-2.5,2.4c-0.3,0.3-0.5,0.5-0.5,0.9c0,0.2-0.1,0.3-0.2,0.4c-0.3,0.3-0.8,0.4-1,0.2c-0.3-0.2-0.4-0.6-0.1-1
				c0.5-0.6,1.1-1.2,1.6-1.8c0.3-0.3,0.5-0.6,0.8-0.9c-0.9-0.2-1.8,0.1-2.6-0.1c-1,1.1-1.9,2.1-2.9,3.1c-0.1,0.1-0.3,0.3-0.4,0.4
				c-0.2,0.2-0.5,0.2-0.7,0s-0.3-0.4-0.1-0.7c0.3-0.3,0.5-0.7,0.8-1c0.6-0.6,1.1-1.2,1.6-1.9c-0.6,0-1.1,0-1.6,0
				c-0.2,0-0.3,0.1-0.5,0.3c-0.9,1-1.8,2.1-2.7,3.1l-0.1,0.1c-0.2,0.3-0.6,0.4-0.8,0.2c-0.2-0.2-0.3-0.7-0.1-1
				c0.6-0.7,1.2-1.4,1.8-2.1c0.2-0.2,0.3-0.4,0.4-0.7c-0.8-0.2-1.5-0.1-2.2-0.1c-1.2,1.2-2.4,2.4-3.6,3.7c-0.2,0-0.5,0-0.7-0.4
				c-0.1-0.3,0-0.6,0.2-0.8c0.8-0.7,1.5-1.5,2.3-2.2c0,0,0.1-0.1,0.1-0.2c-0.6,0-1.2,0-1.8,0c-0.2,0-0.4,0.1-0.6,0.2
				c-0.5,0.6-1,1.2-1.6,1.9c-0.4,0.5-0.7,1-1.1,1.4c-0.3,0.3-0.6,0.3-0.9,0.1c-0.3-0.2-0.3-0.7,0-1c0.7-0.8,1.4-1.5,2.1-2.4
				c-0.5-0.2-0.9,0-1.2-0.1c-0.8-0.2-1.4,0.2-1.9,0.8c-0.6,0.8-1.3,1.6-2,2.3c-0.3,0.3-0.7,0.4-1,0.2c-0.3-0.2-0.3-0.6,0-0.9
				c0.4-0.5,0.9-0.9,1.3-1.4c0.3-0.3,0.5-0.7,0.8-1.1c-0.8-0.1-1.4-0.1-2,0.3c-0.9,0.7-1.9,1.4-2.5,2.4c-0.1,0.1-0.1,0.3-0.2,0.4
				c-0.2,0.2-0.3,0.4-0.5,0.6c-0.3,0.2-0.6,0.2-0.8-0.1c-0.2-0.2-0.4-0.5-0.1-0.8c0.5-0.6,1-1.2,1.5-1.8c0.4-0.4,0.8-0.7,1.2-1.2
				c-0.6-0.2-1.2-0.2-1.7-0.2c-0.1,0-0.1,0-0.2,0.1c-1.2,1-2.3,2-3.2,3.2c-0.1,0.2-0.2,0.4-0.4,0.6c-0.1,0.2-0.2,0.3-0.3,0.4
				c-0.4,0.3-0.7,0.3-0.9,0.1c-0.2-0.2-0.2-0.7,0-1c0.5-0.5,1-1,1.5-1.6s1.1-1.2,1.7-1.9c-0.9,0-1.7,0-2.5,0c-0.5,0.5-1,0.9-1.5,1.5
				c-0.8,0.8-1.5,1.7-2.3,2.6c-0.2,0.2-0.3,0.5-0.7,0.4c-0.5-0.1-0.7-0.5-0.4-0.9c0.3-0.4,0.7-0.8,1-1.2c0.7-0.7,1.3-1.5,2.1-2.3
				c-0.5,0-0.9,0-1.2,0c-0.4,0-0.8,0-1,0.1c-0.3,0.4-0.4,0.8-0.7,1c-0.9,0.8-1.7,1.7-2.3,2.7c-0.1,0.2-0.3,0.3-0.4,0.4
				c-0.2,0.2-0.5,0.4-0.7,0.1c-0.3-0.3-0.4-0.7-0.1-1c0.5-0.6,1-1.2,1.6-1.7c0.4-0.4,0.7-0.9,1.2-1.5c-0.8-0.1-1.4,0-2.1,0
				c-0.1,0-0.2,0.1-0.3,0.2c-0.7,0.8-1.4,1.7-2.2,2.5c-0.4,0.5-0.8,0.9-1.2,1.4c-0.3,0.3-0.5,0.4-0.9,0.1c-0.3-0.2-0.4-0.5-0.2-0.8
				c0.1-0.2,0.3-0.4,0.5-0.6c0.9-0.7,1.5-1.6,2.2-2.4c0.1-0.1,0-0.2,0.1-0.3c-0.7,0-1.3,0.1-1.9,0.1c-0.1,0-0.2,0.1-0.3,0.3
				c-0.8,1.1-1.7,1.9-2.7,2.8c-0.2,0.2-0.4,0.5-0.6,0.8c-0.2,0.2-0.4,0.4-0.6,0.6c-0.3,0.2-0.5,0.1-0.8-0.1
				c-0.2-0.2-0.2-0.5-0.1-0.7c0.1-0.1,0.2-0.3,0.3-0.4c0.9-0.9,1.8-1.8,2.8-2.7c0.1-0.1,0.2-0.3,0.3-0.4c-0.4-0.2-0.8,0-1.2-0.1
				c-0.4,0-0.8,0-1.2,0c-0.4,0.9-1.2,1.5-1.8,2.1c-0.6,0.7-1.4,1.2-1.9,2c-0.2,0.4-0.6,0.4-0.9,0.3c-0.4-0.2-0.5-0.5-0.4-1
				c0-0.1,0.2-0.2,0.3-0.3c1-1,2-2,3.2-3c-0.9-0.2-1.7-0.1-2.5,0.1c-0.1,0-0.1,0.1-0.2,0.2c-0.7,0.8-1.4,1.6-2.1,2.4
				c-0.3,0.4-0.5,0.8-0.8,1.1c-0.3,0.3-0.6,0.4-1,0.3c-0.3-0.1-0.5-0.4-0.3-0.7c0.2-0.4,0.4-0.7,0.7-1c0.5-0.6,1-1.2,1.6-1.7
				c0.1-0.1,0.2-0.3,0.3-0.5c-0.6-0.1-1.2-0.2-1.7-0.1c-0.8,0.2-1.1-0.2-1.3-0.8c0.2-0.4,0.6-0.6,1.1-0.6s0.9,0.1,1.4,0.1
				c0.1,0,0.3,0.1,0.4,0c0.7-0.3,1.4,0,2.1-0.1c1-0.1,2,0.1,2.9-0.1c1.1-0.2,2.2-0.2,3.3-0.1c0.3,0,0.6-0.1,1-0.1
				c0.9-0.1,1.9-0.1,2.8-0.1c0.4,0,0.7,0.1,1.1,0.1c0.6,0,1.1-0.2,1.7,0c0.4-0.3,0.9-0.1,1.4-0.2c0.3,0,0.7,0,1,0c0.7,0,1.3,0,2,0
				c1.5,0,3,0.1,4.5,0c1.1-0.1,2.2,0.1,3.3,0.2c0.6,0.1,1.2-0.1,1.8,0c0.8,0,1.5,0.2,2.3,0.2c0.9,0,1.8-0.1,2.8-0.2
				c0.5,0,1.1,0,1.6,0s0.9-0.1,1.4-0.1c3.6,0,7.2,0,10.9,0c1,0,2,0,3.1,0c1.4,0.1,2.8,0.2,4.2,0.2c1.4,0.1,2.8,0.1,4.3,0.1
				c1,0,1.9,0,2.9,0c0.8,0,1.6,0,2.4,0c1.5,0.1,3.1,0.2,4.6,0.2c0.7,0,1.4,0,2.1,0.1c0.6,0,1.2,0.1,1.8,0.1h0.1c1-0.2,2-0.1,3-0.1
				s2,0,3,0c1.3,0,2.6,0.1,4,0.1c0.6,0,1.1,0.1,1.7,0.2c0.1,0,0.2,0.1,0.3,0.1c1.9-0.3,3.9-0.1,5.8-0.1c1.5-0.1,2.9-0.2,4.4-0.2
				c1,0,1.9,0,2.9,0c1.6,0,3.1,0,4.7,0.1c1.7,0.1,3.5,0,5.2,0c3.1-0.1,6.2-0.2,9.3-0.2c1.2,0,2.3,0.1,3.5,0.1
				c1.2,0.1,2.5,0.2,3.7,0.3c1.2,0.1,2.5,0.1,3.7,0.1c1.3,0,2.6-0.1,3.9-0.2C164.3,117.6,164.8,117.7,165.1,118.3z"/>
		</g>
	</g>
	<g>
		<defs>
			<path id="SVGID_5_" d="M70.8,94v44.9c19.8-11.6,31.6-22.3,34.4-32c0-4.3,0-8.6,0-13H70.8V94z"/>
		</defs>
		<clipPath id="SVGID_6_">
			<use xlink:href="#SVGID_5_"  style="overflow:visible;"/>
		</clipPath>
		<g class="st11">
			<path class="st0" d="M28.6,128.6c0.1-0.5,0.5-0.8,0.8-1.1c0.6-0.6,1.2-1.3,1.8-1.9c0.1-0.1,0.1-0.2,0.2-0.3
				c0.3-0.2,0.6-0.2,0.8,0s0.2,0.6,0,0.8c-0.3,0.3-0.6,0.6-1,1c-0.2,0.2-0.3,0.4-0.5,0.6c1.3,0.3,2-0.5,2.7-1.3
				c0.4-0.5,0.8-1,1.2-1.5c0.2-0.3,0.5-0.3,0.8-0.2c0.3,0.1,0.4,0.3,0.3,0.6c0,0.1,0,0.2,0.1,0.4c-0.6,0.6-1.2,1.2-2,1.9
				c0.4,0,0.8,0,1.1,0.1c0.9,0.1,1.6-0.2,2.2-1c0.3-0.5,0.8-1,1.2-1.5c0.3-0.5,0.7-0.7,1.3-0.6c0.2,0.6,0.1,1-0.4,1.4
				c-0.4,0.4-0.9,0.8-1.3,1.2c-0.1,0.1-0.2,0.4-0.4,0.6c0.6,0,1.1,0,1.6,0c0.2,0,0.4-0.1,0.5-0.2c0.8-0.8,1.5-1.7,2.3-2.5
				c0.4-0.4,0.5-0.5,1.2-0.3c0.2,0.4,0.1,0.8-0.3,1.1c-0.6,0.5-1,1-1.6,1.6c-0.1,0.1-0.2,0.3-0.3,0.5c0.1,0,0.2,0,0.3,0.1
				c1.1,0.3,1.4,0.2,2.1-0.7c0.7-0.8,1.4-1.6,2.1-2.3c0.4-0.4,0.8-0.4,1-0.1s0.2,0.7-0.3,1c-0.8,0.6-1.4,1.4-2,2.1
				c0.8,0.2,1.5,0.1,2.3,0.1c0.1,0,0.3-0.1,0.3-0.2c0.7-0.9,1.4-1.8,2.2-2.7c0.1-0.2,0.3-0.3,0.5-0.4c0.3-0.1,0.6,0,0.7,0.2
				s0.1,0.5-0.1,0.7c-0.4,0.4-0.8,0.8-1.2,1.3c-0.3,0.3-0.5,0.7-0.8,1.1c0.7,0,1.2,0.1,1.7,0c0.4-0.1,0.7-0.4,1-0.7
				c0.6-0.5,1.1-1.1,1.6-1.6c0.2-0.2,0.4-0.5,0.5-0.7c0.4-0.5,0.5-0.5,1.1-0.2c0.1,0.5,0,0.9-0.4,1.2c-0.6,0.5-1.1,1.2-1.7,1.8
				c0.1,0.1,0.2,0.1,0.2,0.1c0.7,0,1.4,0,2-0.1c0.2,0,0.4-0.2,0.5-0.4c0.4-0.3,0.7-0.7,1-1.1c0.4-0.4,0.7-0.9,1-1.3
				c0.1-0.1,0.1-0.2,0.2-0.3c0.2-0.1,0.5-0.1,0.7-0.1c0.1,0.1,0.2,0.4,0.2,0.6s-0.2,0.5-0.4,0.7c-0.3,0.3-0.5,0.6-0.8,0.9
				c-0.2,0.3-0.5,0.6-0.8,1c0.3,0.1,0.5,0.1,0.7,0.1c0.6,0,1.1,0,1.7-0.1c0.2,0,0.5-0.1,0.6-0.3c0.8-0.8,1.6-1.6,2.3-2.4
				c0.2-0.2,0.3-0.5,0.6-0.7c0.2-0.2,0.4-0.3,0.6-0.4c0.3-0.1,0.5,0.1,0.5,0.5c0.1,0.4-0.1,0.6-0.3,0.9c-0.6,0.6-1.2,1.3-1.8,1.9
				c-0.1,0.1-0.2,0.3-0.4,0.5c0.7,0,1.3,0,1.9,0c0.1,0,0.2-0.1,0.3-0.2c0.7-0.7,1.3-1.5,2-2.2c0.1-0.1,0.2-0.3,0.3-0.5
				c0.1-0.1,0.1-0.3,0.2-0.4c0.3-0.4,0.9-0.5,1.1-0.3c0.3,0.2,0.3,0.8,0,1.1c-0.6,0.7-1.2,1.3-1.7,2c-0.1,0.1-0.2,0.3-0.4,0.5
				c0.3,0,0.5,0,0.7,0c0.1,0,0.3-0.1,0.4,0c1.4,0.3,2.2-0.6,3-1.4c0.5-0.5,0.9-1.1,1.4-1.6c0.3-0.4,0.6-0.2,1-0.1
				c0.2,0.5,0.1,0.9-0.2,1.2c-0.3,0.3-0.6,0.6-0.9,0.9s-0.6,0.5-0.8,1c0.8,0,1.6,0,2.4,0c0.1,0,0.2-0.1,0.3-0.2
				c0.6-0.6,1.1-1.3,1.6-2c0.2-0.3,0.3-0.6,0.5-0.8c0.2-0.3,0.4-0.6,0.8-0.7s0.7,0,0.7,0.5c0,0.2-0.1,0.5-0.2,0.7
				c-0.5,0.7-1.1,1.3-1.6,2c-0.1,0.1-0.2,0.3-0.4,0.6c0.8,0,1.4-0.1,2-0.1c0.1,0,0.3-0.1,0.3-0.2c0.7-0.7,1.3-1.5,1.9-2.2
				c0.2-0.2,0.4-0.4,0.6-0.6s0.5-0.3,0.7-0.1c0.3,0.3,0.3,0.6,0,0.9s-0.7,0.6-1,0.9c-0.4,0.4-0.7,0.8-1.1,1.3c0.8,0,1.4,0.1,2.1,0.1
				c0.1,0,0.3-0.1,0.4-0.2c0.5-0.5,1-1,1.5-1.5s0.9-1.1,1.3-1.6c0.1-0.1,0.2-0.1,0.2-0.2c0.4-0.3,0.7-0.3,0.9-0.1
				c0.2,0.2,0.2,0.6-0.1,1c-0.7,0.8-1.4,1.5-2,2.3c-0.1,0.1-0.1,0.1-0.3,0.3c0.4,0,0.7,0,1,0s0.7-0.1,1,0c0.7,0.1,1.1-0.3,1.5-0.8
				c0.5-0.7,1.1-1.4,1.6-2.1c0.2-0.3,0.5-0.3,0.8-0.2c0.3,0.1,0.4,0.3,0.4,0.5c0,0.1,0,0.2,0,0.3c-0.7,0.8-1.3,1.5-1.9,2.2
				c0.6,0.2,1.2,0.2,1.8,0.2c0.3,0,0.7,0,1,0c0.2,0,0.3-0.1,0.5-0.3c0.5-0.5,1.1-1.1,1.6-1.6s1-1,1.5-1.6c0.2,0.1,0.5,0.2,0.6,0.4
				c0.2,0.3,0,0.6-0.2,0.8c-0.6,0.6-1.2,1.2-1.8,1.8c-0.1,0.1-0.1,0.2-0.2,0.4c0.7,0.3,1.5,0.3,2.2,0.1c0.1,0,0.3-0.1,0.4-0.2
				c0.5-0.6,1.1-1.3,1.6-1.9c0.1-0.1,0.2-0.3,0.3-0.4c0.4-0.7,0.5-0.8,1.3-0.5c0.2,0.4,0.1,0.8-0.2,1.1c-0.5,0.6-1,1.2-1.5,1.8
				c0.6,0.3,1.3,0.3,1.9,0.4c0.1,0,0.3-0.2,0.4-0.3c0.8-0.8,1.6-1.7,2.3-2.6c0.3-0.4,0.6-0.5,1-0.3c0.1,0.5,0.1,0.9-0.3,1.3
				c-0.6,0.5-1.1,1.1-1.7,1.7c0.2,0,0.4,0.1,0.5,0.1c0.3,0,0.6,0,0.9,0c0.2,0,0.4-0.1,0.6-0.2c0.7-0.7,1.3-1.3,2-2
				c0.1-0.1,0.2-0.2,0.2-0.4c0-0.6,0.5-0.8,0.9-1c0.1,0.1,0.3,0.1,0.4,0.2c0.4,0.3,0.4,0.6,0.1,0.9c-0.6,0.7-1.3,1.4-1.9,2.2
				c-0.1,0.1-0.1,0.2-0.1,0.3c0.8,0,1.5,0.1,2.2,0.1c0.2,0,0.5-0.2,0.7-0.4c0.7-0.8,1.4-1.6,2.1-2.4c0.1-0.1,0.2-0.3,0.3-0.3
				c0.3-0.2,0.5-0.1,0.7,0.1s0.2,0.4,0.1,0.6c-0.2,0.2-0.4,0.4-0.5,0.7c-0.4,0.5-0.9,1-1.3,1.6c0,0,0,0.1-0.1,0.3c0.7,0,1.3,0,1.9,0
				c0,0,0,0.1,0.1,0.1c0.2-0.3,0.4-0.5,0.6-0.8c0.6-0.9,1.2-1.7,1.9-2.6c0.1-0.1,0.2-0.2,0.3-0.2c0.6-0.6,0.8-0.6,1.3,0.2
				c-0.7,1.1-1.7,2-2.3,3.2c0.5,0.4,1.1,0.1,1.7,0.3c0.8-0.8,1.7-1.6,2.5-2.4c0.3-0.2,0.5-0.5,0.5-0.9c0-0.2,0.1-0.3,0.2-0.4
				c0.3-0.3,0.8-0.4,1-0.2c0.3,0.2,0.4,0.6,0.1,1c-0.5,0.6-1.1,1.2-1.6,1.8c-0.3,0.3-0.5,0.6-0.8,0.9c0.9,0.2,1.8-0.1,2.6,0.1
				c1-1.1,1.9-2.1,2.9-3.1c0.1-0.1,0.3-0.3,0.4-0.4c0.2-0.2,0.5-0.2,0.7,0s0.3,0.4,0.1,0.7c-0.3,0.3-0.5,0.7-0.8,1
				c-0.6,0.6-1.1,1.2-1.6,1.9c0.6,0,1.1,0,1.6,0c0.2,0,0.3-0.1,0.5-0.3c0.9-1,1.8-2.1,2.7-3.1l0.1-0.1c0.2-0.3,0.6-0.4,0.8-0.2
				c0.2,0.2,0.3,0.7,0.1,1c-0.6,0.7-1.2,1.4-1.8,2.1c-0.2,0.2-0.3,0.4-0.4,0.7c0.8,0.2,1.5,0.1,2.2,0.1c1.2-1.2,2.4-2.4,3.6-3.7
				c0.2,0,0.5,0,0.7,0.4c0.1,0.3,0,0.6-0.2,0.8c-0.8,0.7-1.5,1.5-2.3,2.2c0,0-0.1,0.1-0.1,0.2c0.6,0,1.2,0,1.8,0
				c0.2,0,0.4-0.1,0.6-0.2c0.5-0.6,1-1.2,1.6-1.9c0.4-0.5,0.7-1,1.1-1.5c0.3-0.3,0.6-0.3,0.9-0.1c0.3,0.2,0.3,0.7,0,1
				c-0.7,0.8-1.4,1.5-2.1,2.4c0.5,0.2,0.9,0,1.2,0.1c0.8,0.2,1.4-0.2,1.9-0.8c0.6-0.8,1.3-1.6,2-2.3c0.3-0.3,0.7-0.4,1-0.2
				c0.3,0.2,0.3,0.6,0,0.9c-0.4,0.5-0.9,0.9-1.3,1.4c-0.3,0.3-0.5,0.7-0.8,1.1c0.8,0.1,1.4,0.1,2-0.3c0.9-0.7,1.9-1.4,2.5-2.4
				c0.1-0.1,0.1-0.3,0.2-0.4c0.2-0.2,0.3-0.4,0.5-0.6c0.3-0.2,0.6-0.2,0.8,0.1c0.2,0.2,0.4,0.5,0.1,0.8c-0.5,0.6-1,1.2-1.5,1.8
				c-0.4,0.4-0.8,0.7-1.2,1.2c0.6,0.2,1.2,0.2,1.7,0.2c0.1,0,0.1,0,0.2-0.1c1.2-1,2.3-2,3.2-3.2c0.2-0.2,0.2-0.4,0.4-0.6
				c0.1-0.2,0.2-0.3,0.3-0.4c0.4-0.3,0.7-0.3,0.9-0.1c0.2,0.2,0.2,0.7,0,1c-0.5,0.5-1,1-1.5,1.6s-1.1,1.2-1.7,1.9c0.9,0,1.7,0,2.5,0
				c0.5-0.5,1-0.9,1.5-1.5c0.8-0.8,1.5-1.7,2.3-2.6c0.2-0.2,0.3-0.5,0.7-0.4c0.5,0.1,0.7,0.5,0.4,0.9c-0.3,0.4-0.7,0.8-1,1.2
				c-0.7,0.7-1.3,1.5-2.1,2.4c0.5,0,0.9,0,1.2,0c0.4,0,0.8,0,1-0.1c0.3-0.4,0.4-0.8,0.7-1.1c0.9-0.8,1.7-1.7,2.3-2.7
				c0.1-0.2,0.3-0.3,0.4-0.4c0.2-0.2,0.5-0.4,0.7-0.1c0.3,0.3,0.4,0.7,0.1,1c-0.5,0.6-1.1,1.2-1.6,1.8c-0.4,0.4-0.7,0.9-1.2,1.5
				c0.8,0.1,1.4,0,2.1,0c0.1,0,0.2-0.1,0.3-0.2c0.7-0.8,1.4-1.7,2.2-2.5c0.4-0.5,0.8-0.9,1.2-1.4c0.3-0.3,0.5-0.3,0.9-0.1
				c0.3,0.2,0.4,0.5,0.2,0.8c-0.1,0.2-0.3,0.4-0.5,0.6c-0.9,0.7-1.5,1.6-2.2,2.4c-0.1,0.1,0,0.2-0.1,0.3c0.7,0,1.3-0.1,1.9-0.1
				c0.1,0,0.2-0.1,0.3-0.3c0.8-1.1,1.7-1.9,2.7-2.8c0.2-0.2,0.4-0.5,0.6-0.8c0.2-0.2,0.4-0.4,0.6-0.6c0.3-0.2,0.5-0.1,0.8,0.1
				c0.2,0.2,0.2,0.5,0.1,0.7c-0.1,0.1-0.2,0.3-0.3,0.4c-0.9,0.9-1.8,1.8-2.8,2.7c-0.1,0.1-0.2,0.3-0.3,0.4c0.4,0.2,0.8,0,1.2,0.1
				c0.4,0,0.8,0,1.2,0c0.4-0.9,1.2-1.5,1.8-2.1c0.6-0.7,1.4-1.2,1.9-2c0.2-0.4,0.6-0.4,0.9-0.3c0.4,0.2,0.5,0.5,0.4,1
				c0,0.1-0.2,0.2-0.3,0.3c-1,1-2,2-3.2,3c0.9,0.2,1.7,0.1,2.5-0.1c0.1,0,0.1-0.1,0.2-0.2c0.7-0.8,1.4-1.6,2.1-2.3
				c0.3-0.4,0.5-0.8,0.8-1.1c0.3-0.3,0.6-0.4,1-0.3c0.3,0.1,0.5,0.4,0.3,0.7c-0.2,0.4-0.4,0.7-0.7,1c-0.5,0.6-1,1.2-1.6,1.7
				c-0.1,0.1-0.2,0.3-0.3,0.5c0.6,0.1,1.2,0.2,1.7,0.1c0.8-0.2,1.1,0.2,1.3,0.8c-0.2,0.4-0.6,0.6-1.1,0.6s-0.9-0.1-1.4-0.1
				c-0.1,0-0.3-0.1-0.4,0c-0.7,0.3-1.4,0-2.1,0.1c-1,0.1-2-0.1-2.9,0.1c-1.1,0.2-2.2,0.2-3.3,0.1c-0.3,0-0.6,0.1-1,0.1
				c-0.9,0.1-1.9,0.1-2.8,0.1c-0.4,0-0.7-0.1-1.1-0.1c-0.6,0-1.1,0.2-1.7,0c-0.4,0.3-0.9,0.1-1.4,0.2c-0.3,0-0.7,0-1,0
				c-0.7,0-1.3,0-2,0c-1.5,0-3-0.1-4.5,0c-1.1,0.1-2.2-0.1-3.3-0.2c-0.6-0.1-1.2,0.1-1.8,0c-0.8,0-1.5-0.2-2.3-0.2
				c-0.9,0-1.8,0.1-2.8,0.2c-0.5,0-1.1,0-1.6,0s-0.9,0.1-1.4,0.1c-3.6,0-7.2,0-10.9,0c-1,0-2,0-3.1,0c-1.4-0.1-2.8-0.2-4.2-0.2
				c-1.4-0.1-2.8-0.1-4.3-0.1c-1,0-1.9,0-2.9,0c-0.8,0-1.6,0-2.4,0c-1.5-0.1-3.1-0.2-4.6-0.2c-0.7,0-1.4,0-2.1-0.1
				c-0.6,0-1.2-0.1-1.8-0.1h-0.1c-1,0.2-2,0.1-3,0.1s-2,0-3,0c-1.3,0-2.6-0.1-4-0.1c-0.6,0-1.1-0.1-1.7-0.2c-0.1,0-0.2-0.1-0.3-0.1
				c-1.9,0.3-3.9,0.1-5.8,0.1c-1.5,0.1-2.9,0.2-4.4,0.2c-1,0-1.9,0-2.9,0c-1.6,0-3.1,0-4.7-0.1c-1.7-0.1-3.5,0-5.2,0
				c-3.1,0.1-6.2,0.2-9.3,0.2c-1.2,0-2.3-0.1-3.5-0.1c-1.2-0.1-2.5-0.2-3.7-0.3c-1.2-0.1-2.5-0.1-3.7-0.1c-1.3,0-2.6,0.1-3.9,0.2
				C29.3,129.2,28.9,129.1,28.6,128.6z"/>
			<path class="st0" d="M165.1,131.8c-0.1,0.5-0.5,0.8-0.8,1.1c-0.6,0.6-1.2,1.3-1.8,1.9c-0.1,0.1-0.1,0.2-0.2,0.3
				c-0.3,0.2-0.6,0.2-0.9,0c-0.2-0.2-0.2-0.6,0-0.8c0.3-0.3,0.6-0.6,1-1c0.2-0.2,0.3-0.4,0.5-0.6c-1.3-0.3-2,0.5-2.7,1.3
				c-0.4,0.5-0.8,1-1.2,1.5c-0.2,0.3-0.5,0.3-0.8,0.2c-0.3-0.1-0.4-0.3-0.3-0.6c0-0.1,0-0.2-0.1-0.4c0.6-0.6,1.2-1.2,2-1.9
				c-0.4,0-0.8,0-1.1-0.1c-0.9-0.1-1.6,0.2-2.2,1c-0.3,0.5-0.8,1-1.2,1.5c-0.3,0.5-0.7,0.7-1.3,0.6c-0.2-0.6-0.1-1,0.4-1.4
				c0.4-0.4,0.9-0.7,1.3-1.2c0.1-0.1,0.2-0.4,0.4-0.6c-0.6,0-1.1,0-1.6,0c-0.2,0-0.4,0.1-0.5,0.2c-0.8,0.8-1.5,1.7-2.3,2.5
				c-0.4,0.4-0.5,0.5-1.2,0.3c-0.2-0.4-0.1-0.8,0.3-1.1c0.6-0.5,1-1,1.6-1.6c0.1-0.1,0.2-0.3,0.3-0.5c-0.1,0-0.2,0-0.3-0.1
				c-1.1-0.3-1.4-0.2-2.1,0.7c-0.7,0.8-1.4,1.6-2.1,2.3c-0.4,0.4-0.8,0.4-1,0.1s-0.2-0.7,0.3-1c0.8-0.6,1.4-1.4,2-2.1
				c-0.8-0.2-1.5-0.1-2.3-0.1c-0.1,0-0.3,0.1-0.3,0.2c-0.7,0.9-1.4,1.8-2.2,2.7c-0.1,0.2-0.3,0.3-0.5,0.4c-0.3,0.1-0.6,0-0.7-0.2
				s-0.1-0.5,0.1-0.7c0.4-0.4,0.8-0.8,1.2-1.3c0.3-0.3,0.5-0.7,0.8-1.1c-0.7,0-1.2-0.1-1.7,0c-0.4,0.1-0.7,0.4-1,0.7
				c-0.6,0.5-1.1,1.1-1.6,1.6c-0.2,0.2-0.4,0.5-0.5,0.7c-0.4,0.5-0.5,0.5-1.1,0.2c-0.1-0.5,0-0.9,0.4-1.2c0.6-0.5,1.1-1.2,1.7-1.8
				c-0.1-0.1-0.2-0.1-0.2-0.1c-0.7,0-1.4,0-2,0.1c-0.2,0-0.4,0.2-0.5,0.4c-0.4,0.4-0.7,0.7-1,1.1c-0.4,0.4-0.7,0.9-1.1,1.3
				c-0.1,0.1-0.1,0.2-0.2,0.3c-0.2,0.1-0.5,0.1-0.7,0.1c-0.1-0.1-0.2-0.4-0.2-0.6s0.2-0.5,0.4-0.7c0.3-0.3,0.5-0.6,0.8-0.9
				c0.2-0.3,0.5-0.6,0.8-1c-0.3-0.1-0.5-0.1-0.7-0.1c-0.6,0-1.1,0-1.7,0.1c-0.2,0-0.5,0.1-0.6,0.3c-0.8,0.8-1.6,1.6-2.3,2.4
				c-0.2,0.2-0.3,0.5-0.6,0.7c-0.2,0.2-0.4,0.3-0.6,0.4c-0.3,0.1-0.5-0.1-0.5-0.5c-0.1-0.4,0.1-0.6,0.3-0.9c0.6-0.6,1.2-1.3,1.8-1.9
				c0.1-0.1,0.2-0.3,0.4-0.5c-0.7,0-1.3,0-1.9,0c-0.1,0-0.2,0.1-0.3,0.2c-0.7,0.7-1.3,1.5-2,2.2c-0.1,0.1-0.2,0.3-0.3,0.5
				c-0.1,0.1-0.1,0.3-0.2,0.4c-0.3,0.4-0.9,0.5-1.1,0.3c-0.3-0.2-0.3-0.8,0-1.1c0.6-0.7,1.2-1.3,1.7-2c0.1-0.1,0.2-0.3,0.4-0.5
				c-0.3,0-0.5,0-0.7,0c-0.1,0-0.3,0.1-0.4,0c-1.4-0.3-2.2,0.6-3,1.4c-0.5,0.5-0.9,1.1-1.4,1.6c-0.3,0.4-0.6,0.2-1,0.1
				c-0.2-0.5-0.1-0.9,0.2-1.2c0.3-0.3,0.6-0.6,0.9-0.9s0.6-0.5,0.8-1c-0.8,0-1.6,0-2.4,0c-0.1,0-0.2,0.1-0.3,0.2
				c-0.6,0.6-1.1,1.3-1.6,2c-0.2,0.3-0.3,0.6-0.5,0.8c-0.2,0.3-0.4,0.6-0.8,0.7s-0.7,0-0.7-0.5c0-0.2,0.1-0.5,0.2-0.7
				c0.5-0.7,1.1-1.3,1.7-2c0.1-0.1,0.2-0.3,0.4-0.6c-0.8,0-1.4,0.1-2,0.1c-0.1,0-0.3,0.1-0.4,0.2c-0.7,0.7-1.3,1.5-1.9,2.2
				c-0.2,0.2-0.4,0.4-0.6,0.6s-0.5,0.3-0.7,0.1c-0.3-0.3-0.3-0.6,0-0.9s0.7-0.6,1-0.9c0.4-0.4,0.7-0.8,1.1-1.3
				c-0.8,0-1.4-0.1-2.1-0.1c-0.1,0-0.3,0.1-0.4,0.2c-0.5,0.5-1,1-1.5,1.5s-0.9,1.1-1.3,1.6c-0.1,0.1-0.2,0.1-0.2,0.2
				c-0.4,0.3-0.7,0.3-0.9,0.1c-0.2-0.2-0.2-0.6,0.1-1c0.7-0.8,1.4-1.5,2-2.3c0.1-0.1,0.1-0.1,0.3-0.3c-0.4,0-0.7,0-1,0s-0.7,0.1-1,0
				c-0.7-0.1-1.1,0.3-1.5,0.8c-0.5,0.7-1.1,1.4-1.6,2.1c-0.2,0.3-0.5,0.3-0.8,0.2c-0.3-0.1-0.4-0.3-0.4-0.5c0-0.1,0-0.2,0-0.3
				c0.7-0.8,1.3-1.5,1.9-2.2c-0.6-0.3-1.2-0.2-1.8-0.2c-0.3,0-0.7,0-1,0c-0.2,0-0.3,0.1-0.5,0.3c-0.5,0.5-1.1,1.1-1.6,1.6
				s-1,1-1.5,1.6c-0.2-0.1-0.5-0.2-0.6-0.4c-0.2-0.3,0-0.6,0.2-0.8c0.6-0.6,1.2-1.2,1.8-1.8c0.1-0.1,0.1-0.2,0.2-0.4
				c-0.7-0.3-1.4-0.3-2.2-0.1c-0.1,0-0.3,0.1-0.4,0.2c-0.5,0.6-1.1,1.3-1.6,1.9c-0.1,0.1-0.2,0.3-0.3,0.4c-0.4,0.7-0.5,0.8-1.3,0.5
				c-0.1-0.4-0.1-0.8,0.2-1.1c0.5-0.6,1-1.2,1.5-1.8c-0.6-0.3-1.3-0.3-1.9-0.4c-0.1,0-0.3,0.2-0.4,0.3c-0.8,0.8-1.6,1.7-2.3,2.6
				c-0.3,0.4-0.6,0.5-1,0.3c-0.1-0.5-0.1-0.9,0.3-1.3c0.6-0.5,1.1-1.1,1.7-1.7c-0.2,0-0.4-0.1-0.5-0.1c-0.3,0-0.6,0-0.9,0
				c-0.2,0-0.4,0.1-0.6,0.2c-0.7,0.7-1.3,1.3-2,2c-0.1,0.1-0.2,0.2-0.2,0.4c0,0.6-0.5,0.8-0.9,1c-0.1-0.1-0.3-0.1-0.4-0.2
				c-0.4-0.3-0.4-0.6-0.1-0.9c0.6-0.7,1.3-1.4,1.9-2.2c0.1-0.1,0.1-0.2,0.1-0.3c-0.8,0-1.5-0.1-2.2-0.1c-0.2,0-0.5,0.2-0.7,0.4
				c-0.7,0.8-1.4,1.6-2.1,2.4c-0.1,0.1-0.2,0.3-0.3,0.4c-0.3,0.2-0.5,0.1-0.7-0.1s-0.2-0.4-0.1-0.6c0.2-0.2,0.4-0.4,0.5-0.7
				c0.4-0.5,0.9-1,1.3-1.6c0,0,0-0.1,0.1-0.3c-0.7,0-1.3,0-1.9,0c0,0,0-0.1-0.1-0.1c-0.2,0.3-0.4,0.5-0.6,0.8
				c-0.6,0.9-1.2,1.7-1.9,2.6c-0.1,0.1-0.2,0.2-0.3,0.2c-0.6,0.6-0.8,0.6-1.3-0.2c0.7-1.1,1.7-2,2.3-3.2c-0.5-0.4-1.1-0.1-1.7-0.3
				c-0.8,0.8-1.7,1.6-2.5,2.4c-0.3,0.2-0.5,0.5-0.5,0.9c0,0.2-0.1,0.3-0.2,0.4c-0.3,0.3-0.8,0.4-1,0.2c-0.3-0.2-0.4-0.6-0.1-1
				c0.5-0.6,1.1-1.2,1.6-1.8c0.3-0.3,0.5-0.6,0.8-0.9c-0.9-0.2-1.8,0.1-2.6-0.1c-1,1.1-1.9,2.1-2.9,3.1c-0.1,0.1-0.3,0.3-0.4,0.4
				c-0.2,0.2-0.5,0.2-0.7,0s-0.3-0.4-0.1-0.7c0.3-0.3,0.5-0.7,0.8-1c0.6-0.6,1.1-1.2,1.6-1.9c-0.6,0-1.1,0-1.6,0
				c-0.2,0-0.3,0.1-0.5,0.3c-0.9,1-1.8,2.1-2.7,3.1l-0.1,0.1c-0.2,0.3-0.6,0.4-0.8,0.2c-0.2-0.2-0.3-0.7-0.1-1
				c0.6-0.7,1.2-1.4,1.8-2.1c0.2-0.2,0.3-0.4,0.4-0.7c-0.8-0.2-1.5-0.1-2.2-0.1c-1.2,1.2-2.4,2.4-3.6,3.7c-0.2,0-0.5,0-0.7-0.4
				c-0.1-0.3,0-0.6,0.2-0.8c0.8-0.7,1.5-1.5,2.3-2.2c0,0,0.1-0.1,0.1-0.2c-0.6,0-1.2,0-1.8,0c-0.2,0-0.4,0.1-0.6,0.2
				c-0.5,0.6-1,1.2-1.6,1.9c-0.4,0.5-0.7,1-1.1,1.4c-0.3,0.3-0.6,0.3-0.9,0.1c-0.3-0.2-0.3-0.7,0-1c0.7-0.8,1.4-1.5,2.1-2.4
				c-0.5-0.2-0.9,0-1.2-0.1c-0.8-0.2-1.4,0.2-1.9,0.8c-0.6,0.8-1.3,1.6-2,2.3c-0.3,0.3-0.7,0.4-1,0.2c-0.3-0.2-0.3-0.6,0-0.9
				c0.4-0.5,0.9-0.9,1.3-1.4c0.3-0.3,0.5-0.7,0.8-1.1c-0.8-0.1-1.4-0.1-2,0.3c-0.9,0.7-1.9,1.4-2.5,2.4c-0.1,0.1-0.1,0.3-0.2,0.4
				c-0.2,0.2-0.3,0.4-0.5,0.6c-0.3,0.2-0.6,0.2-0.8-0.1c-0.2-0.2-0.4-0.5-0.1-0.8c0.5-0.6,1-1.2,1.5-1.8c0.4-0.4,0.8-0.7,1.2-1.2
				c-0.6-0.2-1.2-0.2-1.7-0.2c-0.1,0-0.1,0-0.2,0.1c-1.2,1-2.3,2-3.2,3.2c-0.1,0.2-0.2,0.4-0.4,0.6c-0.1,0.2-0.2,0.3-0.3,0.4
				c-0.4,0.3-0.7,0.3-0.9,0.1c-0.2-0.2-0.2-0.7,0-1c0.5-0.5,1-1,1.5-1.6s1.1-1.2,1.7-1.9c-0.9,0-1.7,0-2.5,0c-0.5,0.5-1,0.9-1.5,1.5
				c-0.8,0.8-1.5,1.7-2.3,2.6c-0.2,0.2-0.3,0.5-0.7,0.4c-0.5-0.1-0.7-0.5-0.4-0.9c0.3-0.4,0.7-0.8,1-1.2c0.7-0.7,1.3-1.5,2.1-2.3
				c-0.5,0-0.9,0-1.2,0c-0.4,0-0.8,0-1,0.1c-0.3,0.4-0.4,0.8-0.7,1.1c-0.9,0.8-1.7,1.7-2.3,2.7c-0.1,0.2-0.3,0.3-0.4,0.4
				c-0.2,0.2-0.5,0.4-0.7,0.1c-0.3-0.3-0.4-0.7-0.1-1c0.5-0.6,1-1.2,1.6-1.7c0.4-0.4,0.7-0.9,1.2-1.5c-0.8-0.1-1.4,0-2.1,0
				c-0.1,0-0.2,0.1-0.3,0.2c-0.7,0.8-1.4,1.7-2.2,2.5c-0.4,0.5-0.8,0.9-1.2,1.4c-0.3,0.3-0.5,0.4-0.9,0.1c-0.3-0.2-0.4-0.5-0.2-0.8
				c0.1-0.2,0.3-0.4,0.5-0.6c0.9-0.7,1.5-1.6,2.2-2.4c0.1-0.1,0-0.2,0.1-0.3c-0.7,0-1.3,0.1-1.9,0.1c-0.1,0-0.2,0.1-0.3,0.3
				c-0.8,1.1-1.7,1.9-2.7,2.8c-0.2,0.2-0.4,0.5-0.6,0.8c-0.2,0.2-0.4,0.4-0.6,0.6c-0.3,0.2-0.5,0.1-0.8-0.1
				c-0.2-0.2-0.2-0.5-0.1-0.7c0.1-0.1,0.2-0.3,0.3-0.4c0.9-0.9,1.8-1.8,2.8-2.7c0.1-0.1,0.2-0.3,0.3-0.4c-0.4-0.2-0.8,0-1.2-0.1
				c-0.4,0-0.8,0-1.2,0c-0.4,0.9-1.2,1.5-1.8,2.1c-0.6,0.7-1.4,1.2-1.9,2c-0.2,0.4-0.6,0.4-0.9,0.3c-0.4-0.2-0.5-0.5-0.4-1
				c0-0.1,0.2-0.2,0.3-0.3c1-1,2-2,3.2-3c-0.9-0.2-1.7-0.1-2.5,0.1c-0.1,0-0.1,0.1-0.2,0.2c-0.7,0.8-1.4,1.6-2.1,2.4
				c-0.3,0.4-0.5,0.8-0.8,1.1c-0.3,0.3-0.6,0.4-1,0.3c-0.3-0.1-0.5-0.4-0.3-0.7c0.2-0.4,0.4-0.7,0.7-1c0.5-0.6,1-1.2,1.6-1.7
				c0.1-0.1,0.2-0.3,0.3-0.5c-0.6-0.1-1.2-0.2-1.7-0.1c-0.8,0.2-1.1-0.2-1.3-0.8c0.2-0.4,0.6-0.6,1.1-0.6s0.9,0.1,1.4,0.1
				c0.1,0,0.3,0.1,0.4,0c0.7-0.3,1.4,0,2.1-0.1c1-0.1,2,0.1,2.9-0.1c1.1-0.2,2.2-0.2,3.3-0.1c0.3,0,0.6-0.1,1-0.1
				c0.9-0.1,1.9-0.1,2.8-0.1c0.4,0,0.7,0.1,1.1,0.1c0.6,0,1.1-0.2,1.7,0c0.4-0.3,0.9-0.1,1.4-0.2c0.3,0,0.7,0,1,0c0.7,0,1.3,0,2,0
				c1.5,0,3,0.1,4.5,0c1.1-0.1,2.2,0.1,3.3,0.2c0.6,0.1,1.2-0.1,1.8,0c0.8,0,1.5,0.2,2.3,0.2c0.9,0,1.8-0.1,2.8-0.2
				c0.5,0,1.1,0,1.6,0s0.9-0.1,1.4-0.1c3.6,0,7.2,0,10.9,0c1,0,2,0,3.1,0c1.4,0.1,2.8,0.2,4.2,0.2c1.4,0.1,2.8,0.1,4.3,0.1
				c1,0,1.9,0,2.9,0c0.8,0,1.6,0,2.4,0c1.5,0.1,3.1,0.2,4.6,0.2c0.7,0,1.4,0,2.1,0.1c0.6,0,1.2,0.1,1.8,0.1h0.1c1-0.2,2-0.1,3-0.1
				s2,0,3,0c1.3,0,2.6,0.1,4,0.1c0.6,0,1.1,0.1,1.7,0.2c0.1,0,0.2,0.1,0.3,0.1c1.9-0.3,3.9-0.1,5.8-0.1c1.5-0.1,2.9-0.2,4.4-0.2
				c1,0,1.9,0,2.9,0c1.6,0,3.1,0,4.7,0.1c1.7,0.1,3.5,0,5.2,0c3.1-0.1,6.2-0.2,9.3-0.2c1.2,0,2.3,0.1,3.5,0.1
				c1.2,0.1,2.5,0.2,3.7,0.3c1.2,0.1,2.5,0.1,3.7,0.1c1.3,0,2.6-0.1,3.9-0.2C164.3,131.2,164.8,131.3,165.1,131.8z"/>
		</g>
	</g>
</g>
</svg>
